<svg width="388" height="341" viewBox="0 0 388 341" fill="none" xmlns="http://www.w3.org/2000/svg">
<mask id="mask0_28_2586" style="mask-type:alpha" maskUnits="userSpaceOnUse" x="0" y="0" width="388" height="341">
<path fill-rule="evenodd" clip-rule="evenodd" d="M275 21C275 9.40202 265.598 0 254 0H21C9.40202 0 0 9.40202 0 21V115V287V320C0 331.598 9.40202 341 21 341H367C378.598 341 388 331.598 388 320V136C388 124.402 378.598 115 367 115H296C284.402 115 275 105.598 275 94V21Z" fill="#D9D9D9"/>
</mask>
<g mask="url(#mask0_28_2586)">
<rect width="396" height="364" fill="url(#paint0_linear_28_2586)"/>
<g style="mix-blend-mode:color">
<g filter="url(#filter0_f_28_2586)">
<g filter="url(#filter1_i_28_2586)">
<ellipse cx="314.029" cy="369.892" rx="19.1954" ry="33.8742" transform="rotate(-36.7566 314.029 369.892)" fill="#98B6D4"/>
<ellipse cx="314.029" cy="369.892" rx="19.1954" ry="33.8742" transform="rotate(-36.7566 314.029 369.892)" fill="url(#paint1_radial_28_2586)" style="mix-blend-mode:hard-light"/>
<ellipse cx="314.029" cy="369.892" rx="19.1954" ry="33.8742" transform="rotate(-36.7566 314.029 369.892)" fill="url(#paint2_linear_28_2586)"/>
</g>
</g>
<g filter="url(#filter2_f_28_2586)">
<g filter="url(#filter3_i_28_2586)">
<ellipse cx="314.029" cy="369.892" rx="19.1954" ry="33.8742" transform="rotate(-36.7566 314.029 369.892)" fill="#98B6D4"/>
<ellipse cx="314.029" cy="369.892" rx="19.1954" ry="33.8742" transform="rotate(-36.7566 314.029 369.892)" fill="url(#paint3_radial_28_2586)" style="mix-blend-mode:hard-light"/>
<ellipse cx="314.029" cy="369.892" rx="19.1954" ry="33.8742" transform="rotate(-36.7566 314.029 369.892)" fill="url(#paint4_linear_28_2586)"/>
</g>
</g>
<g filter="url(#filter4_f_28_2586)">
<g filter="url(#filter5_i_28_2586)">
<ellipse cx="327.27" cy="359.918" rx="28.6252" ry="50.515" transform="rotate(-36.7566 327.27 359.918)" fill="#98B6D4"/>
<ellipse cx="327.27" cy="359.918" rx="28.6252" ry="50.515" transform="rotate(-36.7566 327.27 359.918)" fill="url(#paint5_radial_28_2586)" style="mix-blend-mode:hard-light"/>
<ellipse cx="327.27" cy="359.918" rx="28.6252" ry="50.515" transform="rotate(-36.7566 327.27 359.918)" fill="url(#paint6_linear_28_2586)"/>
</g>
<path d="M348.595 407.04L357.463 400.417C344.787 409.831 321.015 399.379 304.336 377.048C287.641 354.696 284.375 328.907 297.041 319.446L288.172 326.071C288.16 326.079 288.148 326.088 288.137 326.097C275.471 335.557 278.737 361.346 295.432 383.698C312.127 406.05 335.929 416.501 348.595 407.04Z" fill="url(#paint7_radial_28_2586)"/>
<path d="M348.595 407.04L357.463 400.417C344.787 409.831 321.015 399.379 304.336 377.048C287.641 354.696 284.375 328.907 297.041 319.446L288.172 326.071C288.16 326.079 288.148 326.088 288.137 326.097C275.471 335.557 278.737 361.346 295.432 383.698C312.127 406.05 335.929 416.501 348.595 407.04Z" fill="url(#paint8_linear_28_2586)" fill-opacity="0.5" style="mix-blend-mode:color"/>
</g>
<g filter="url(#filter6_f_28_2586)">
<g filter="url(#filter7_i_28_2586)">
<ellipse cx="342.631" cy="348.443" rx="37.045" ry="65.3735" transform="rotate(-36.7566 342.631 348.443)" fill="#034C80"/>
<ellipse cx="342.631" cy="348.443" rx="37.045" ry="65.3735" transform="rotate(-36.7566 342.631 348.443)" fill="url(#paint9_radial_28_2586)" style="mix-blend-mode:hard-light"/>
<ellipse cx="342.631" cy="348.443" rx="37.045" ry="65.3735" transform="rotate(-36.7566 342.631 348.443)" fill="url(#paint10_linear_28_2586)" style="mix-blend-mode:color-dodge"/>
<ellipse cx="342.631" cy="348.443" rx="37.045" ry="65.3735" transform="rotate(-36.7566 342.631 348.443)" fill="url(#paint11_radial_28_2586)" style="mix-blend-mode:soft-light"/>
</g>
<path d="M370.229 409.426L381.705 400.854C365.301 413.037 334.536 399.511 312.951 370.612C291.345 341.685 287.119 308.31 303.51 296.067L292.033 304.64C292.017 304.651 292.002 304.662 291.987 304.673C275.596 316.917 279.822 350.291 301.428 379.218C323.034 408.145 353.837 421.669 370.229 409.426Z" fill="url(#paint12_radial_28_2586)"/>
<path d="M370.229 409.426L381.705 400.854C365.301 413.037 334.536 399.511 312.951 370.612C291.345 341.685 287.119 308.31 303.51 296.067L292.033 304.64C292.017 304.651 292.002 304.662 291.987 304.673C275.596 316.917 279.822 350.291 301.428 379.218C323.034 408.145 353.837 421.669 370.229 409.426Z" fill="url(#paint13_linear_28_2586)" fill-opacity="0.5" style="mix-blend-mode:color"/>
</g>
<g filter="url(#filter8_f_28_2586)">
<g filter="url(#filter9_i_28_2586)">
<ellipse cx="359.828" cy="335.597" rx="43.8689" ry="77.4157" transform="rotate(-36.7566 359.828 335.597)" fill="#034C80"/>
<ellipse cx="359.828" cy="335.597" rx="43.8689" ry="77.4157" transform="rotate(-36.7566 359.828 335.597)" fill="url(#paint14_radial_28_2586)" style="mix-blend-mode:hard-light"/>
<ellipse cx="359.828" cy="335.597" rx="43.8689" ry="77.4157" transform="rotate(-36.7566 359.828 335.597)" fill="url(#paint15_linear_28_2586)" style="mix-blend-mode:color-dodge"/>
<ellipse cx="359.828" cy="335.597" rx="43.8689" ry="77.4157" transform="rotate(-36.7566 359.828 335.597)" fill="url(#paint16_radial_28_2586)" style="mix-blend-mode:soft-light"/>
</g>
<path d="M392.509 407.813L406.099 397.663C386.674 412.09 350.242 396.072 324.681 361.849C299.095 327.594 294.09 288.072 313.501 273.573L299.909 283.725C299.891 283.738 299.873 283.752 299.855 283.765C280.444 298.264 285.45 337.786 311.035 372.041C336.621 406.296 373.098 422.312 392.509 407.813Z" fill="url(#paint17_radial_28_2586)"/>
<path d="M392.509 407.813L406.099 397.663C386.674 412.09 350.242 396.072 324.681 361.849C299.095 327.594 294.09 288.072 313.501 273.573L299.909 283.725C299.891 283.738 299.873 283.752 299.855 283.765C280.444 298.264 285.45 337.786 311.035 372.041C336.621 406.296 373.098 422.312 392.509 407.813Z" fill="url(#paint18_linear_28_2586)" fill-opacity="0.5" style="mix-blend-mode:color"/>
</g>
<g filter="url(#filter10_f_28_2586)">
<g filter="url(#filter11_i_28_2586)">
<ellipse cx="374.986" cy="324.274" rx="37.045" ry="65.3735" transform="rotate(-36.7566 374.986 324.274)" fill="#034C80"/>
<ellipse cx="374.986" cy="324.274" rx="37.045" ry="65.3735" transform="rotate(-36.7566 374.986 324.274)" fill="url(#paint19_radial_28_2586)" style="mix-blend-mode:hard-light"/>
<ellipse cx="374.986" cy="324.274" rx="37.045" ry="65.3735" transform="rotate(-36.7566 374.986 324.274)" fill="url(#paint20_linear_28_2586)" style="mix-blend-mode:color-dodge"/>
<ellipse cx="374.986" cy="324.274" rx="37.045" ry="65.3735" transform="rotate(-36.7566 374.986 324.274)" fill="url(#paint21_radial_28_2586)" style="mix-blend-mode:soft-light"/>
</g>
<path d="M402.583 385.257L414.059 376.685C397.656 388.868 366.891 375.342 345.306 346.443C323.7 317.516 319.473 284.141 335.865 271.898L324.387 280.471C324.372 280.482 324.357 280.493 324.342 280.504C307.95 292.748 312.177 326.122 333.783 355.049C355.389 383.976 386.192 397.5 402.583 385.257Z" fill="url(#paint22_radial_28_2586)"/>
<path d="M402.583 385.257L414.059 376.685C397.656 388.868 366.891 375.342 345.306 346.443C323.7 317.516 319.473 284.141 335.865 271.898L324.387 280.471C324.372 280.482 324.357 280.493 324.342 280.504C307.95 292.748 312.177 326.122 333.783 355.049C355.389 383.976 386.192 397.5 402.583 385.257Z" fill="url(#paint23_linear_28_2586)" fill-opacity="0.5" style="mix-blend-mode:color"/>
</g>
<g filter="url(#filter12_f_28_2586)">
<g filter="url(#filter13_i_28_2586)">
<ellipse cx="387.637" cy="314.823" rx="28.6252" ry="50.515" transform="rotate(-36.7566 387.637 314.823)" fill="#034C80"/>
<ellipse cx="387.637" cy="314.823" rx="28.6252" ry="50.515" transform="rotate(-36.7566 387.637 314.823)" fill="url(#paint24_radial_28_2586)" style="mix-blend-mode:hard-light"/>
<ellipse cx="387.637" cy="314.823" rx="28.6252" ry="50.515" transform="rotate(-36.7566 387.637 314.823)" fill="url(#paint25_linear_28_2586)" style="mix-blend-mode:color-dodge"/>
<ellipse cx="387.637" cy="314.823" rx="28.6252" ry="50.515" transform="rotate(-36.7566 387.637 314.823)" fill="url(#paint26_radial_28_2586)" style="mix-blend-mode:soft-light"/>
</g>
<path d="M408.963 361.945L417.83 355.322C405.155 364.736 381.382 354.284 364.703 331.953C348.008 309.601 344.742 283.812 357.408 274.351L348.539 280.976C348.528 280.984 348.516 280.993 348.504 281.002C335.838 290.462 339.104 316.251 355.799 338.603C372.494 360.955 396.296 371.406 408.963 361.945Z" fill="url(#paint27_radial_28_2586)"/>
<path d="M408.963 361.945L417.83 355.322C405.155 364.736 381.382 354.284 364.703 331.953C348.008 309.601 344.742 283.812 357.408 274.351L348.539 280.976C348.528 280.984 348.516 280.993 348.504 281.002C335.838 290.462 339.104 316.251 355.799 338.603C372.494 360.955 396.296 371.406 408.963 361.945Z" fill="url(#paint28_linear_28_2586)" fill-opacity="0.5" style="mix-blend-mode:color"/>
</g>
<g filter="url(#filter14_f_28_2586)">
<g filter="url(#filter15_i_28_2586)">
<ellipse cx="397.925" cy="307.138" rx="19.1954" ry="33.8742" transform="rotate(-36.7566 397.925 307.138)" fill="#034C80"/>
<ellipse cx="397.925" cy="307.138" rx="19.1954" ry="33.8742" transform="rotate(-36.7566 397.925 307.138)" fill="url(#paint29_radial_28_2586)" style="mix-blend-mode:hard-light"/>
<ellipse cx="397.925" cy="307.138" rx="19.1954" ry="33.8742" transform="rotate(-36.7566 397.925 307.138)" fill="url(#paint30_linear_28_2586)" style="mix-blend-mode:color-dodge"/>
</g>
<path d="M412.226 338.738L418.172 334.296C409.672 340.609 393.731 333.6 382.547 318.625C371.351 303.637 369.161 286.343 377.655 279.999L371.707 284.441C371.7 284.447 371.692 284.453 371.684 284.459C363.19 290.803 365.38 308.096 376.576 323.085C387.771 338.074 403.732 345.082 412.226 338.738Z" fill="url(#paint31_radial_28_2586)"/>
<path d="M412.226 338.738L418.172 334.296C409.672 340.609 393.731 333.6 382.547 318.625C371.351 303.637 369.161 286.343 377.655 279.999L371.707 284.441C371.7 284.447 371.692 284.453 371.684 284.459C363.19 290.803 365.38 308.096 376.576 323.085C387.771 338.074 403.732 345.082 412.226 338.738Z" fill="url(#paint32_linear_28_2586)" fill-opacity="0.5" style="mix-blend-mode:color"/>
</g>
</g>
</g>
<defs>
<filter id="filter0_f_28_2586" x="282.354" y="340.156" width="57.3787" height="63.9315" filterUnits="userSpaceOnUse" color-interpolation-filters="sRGB">
<feFlood flood-opacity="0" result="BackgroundImageFix"/>
<feBlend mode="normal" in="SourceGraphic" in2="BackgroundImageFix" result="shape"/>
<feGaussianBlur stdDeviation="0.129026" result="effect1_foregroundBlur_28_2586"/>
</filter>
<filter id="filter1_i_28_2586" x="288.583" y="340.285" width="51.15" height="59.085" filterUnits="userSpaceOnUse" color-interpolation-filters="sRGB">
<feFlood flood-opacity="0" result="BackgroundImageFix"/>
<feBlend mode="normal" in="SourceGraphic" in2="BackgroundImageFix" result="shape"/>
<feColorMatrix in="SourceAlpha" type="matrix" values="0 0 0 0 0 0 0 0 0 0 0 0 0 0 0 0 0 0 127 0" result="hardAlpha"/>
<feOffset dx="0.516104" dy="-0.129026"/>
<feGaussianBlur stdDeviation="0.129026"/>
<feComposite in2="hardAlpha" operator="arithmetic" k2="-1" k3="1"/>
<feColorMatrix type="matrix" values="0 0 0 0 0 0 0 0 0 0 0 0 0 0 0 0 0 0 0.2 0"/>
<feBlend mode="normal" in2="shape" result="effect1_innerShadow_28_2586"/>
</filter>
<filter id="filter2_f_28_2586" x="282.354" y="340.156" width="57.3787" height="63.9315" filterUnits="userSpaceOnUse" color-interpolation-filters="sRGB">
<feFlood flood-opacity="0" result="BackgroundImageFix"/>
<feBlend mode="normal" in="SourceGraphic" in2="BackgroundImageFix" result="shape"/>
<feGaussianBlur stdDeviation="0.129026" result="effect1_foregroundBlur_28_2586"/>
</filter>
<filter id="filter3_i_28_2586" x="288.583" y="340.285" width="51.15" height="59.085" filterUnits="userSpaceOnUse" color-interpolation-filters="sRGB">
<feFlood flood-opacity="0" result="BackgroundImageFix"/>
<feBlend mode="normal" in="SourceGraphic" in2="BackgroundImageFix" result="shape"/>
<feColorMatrix in="SourceAlpha" type="matrix" values="0 0 0 0 0 0 0 0 0 0 0 0 0 0 0 0 0 0 127 0" result="hardAlpha"/>
<feOffset dx="0.516104" dy="-0.129026"/>
<feGaussianBlur stdDeviation="0.129026"/>
<feComposite in2="hardAlpha" operator="arithmetic" k2="-1" k3="1"/>
<feColorMatrix type="matrix" values="0 0 0 0 0 0 0 0 0 0 0 0 0 0 0 0 0 0 0.2 0"/>
<feBlend mode="normal" in2="shape" result="effect1_innerShadow_28_2586"/>
</filter>
<filter id="filter4_f_28_2586" x="280.162" y="315.701" width="85.3127" height="95.0843" filterUnits="userSpaceOnUse" color-interpolation-filters="sRGB">
<feFlood flood-opacity="0" result="BackgroundImageFix"/>
<feBlend mode="normal" in="SourceGraphic" in2="BackgroundImageFix" result="shape"/>
<feGaussianBlur stdDeviation="0.129026" result="effect1_foregroundBlur_28_2586"/>
</filter>
<filter id="filter5_i_28_2586" x="289.323" y="315.83" width="76.1508" height="88.0472" filterUnits="userSpaceOnUse" color-interpolation-filters="sRGB">
<feFlood flood-opacity="0" result="BackgroundImageFix"/>
<feBlend mode="normal" in="SourceGraphic" in2="BackgroundImageFix" result="shape"/>
<feColorMatrix in="SourceAlpha" type="matrix" values="0 0 0 0 0 0 0 0 0 0 0 0 0 0 0 0 0 0 127 0" result="hardAlpha"/>
<feOffset dx="0.516104" dy="-0.129026"/>
<feGaussianBlur stdDeviation="0.129026"/>
<feComposite in2="hardAlpha" operator="arithmetic" k2="-1" k3="1"/>
<feColorMatrix type="matrix" values="0 0 0 0 0 0 0 0 0 0 0 0 0 0 0 0 0 0 0.2 0"/>
<feBlend mode="normal" in2="shape" result="effect1_innerShadow_28_2586"/>
</filter>
<filter id="filter6_f_28_2586" x="281.742" y="291.296" width="110.255" height="122.901" filterUnits="userSpaceOnUse" color-interpolation-filters="sRGB">
<feFlood flood-opacity="0" result="BackgroundImageFix"/>
<feBlend mode="normal" in="SourceGraphic" in2="BackgroundImageFix" result="shape"/>
<feGaussianBlur stdDeviation="0.129026" result="effect1_foregroundBlur_28_2586"/>
</filter>
<filter id="filter7_i_28_2586" x="293.523" y="291.425" width="98.4738" height="113.907" filterUnits="userSpaceOnUse" color-interpolation-filters="sRGB">
<feFlood flood-opacity="0" result="BackgroundImageFix"/>
<feBlend mode="normal" in="SourceGraphic" in2="BackgroundImageFix" result="shape"/>
<feColorMatrix in="SourceAlpha" type="matrix" values="0 0 0 0 0 0 0 0 0 0 0 0 0 0 0 0 0 0 127 0" result="hardAlpha"/>
<feOffset dx="0.516104" dy="-0.129026"/>
<feGaussianBlur stdDeviation="0.129026"/>
<feComposite in2="hardAlpha" operator="arithmetic" k2="-1" k3="1"/>
<feColorMatrix type="matrix" values="0 0 0 0 0 0 0 0 0 0 0 0 0 0 0 0 0 0 0.2 0"/>
<feBlend mode="normal" in2="shape" result="effect1_innerShadow_28_2586"/>
</filter>
<filter id="filter8_f_28_2586" x="287.771" y="267.971" width="130.469" height="145.445" filterUnits="userSpaceOnUse" color-interpolation-filters="sRGB">
<feFlood flood-opacity="0" result="BackgroundImageFix"/>
<feBlend mode="normal" in="SourceGraphic" in2="BackgroundImageFix" result="shape"/>
<feGaussianBlur stdDeviation="0.129026" result="effect1_foregroundBlur_28_2586"/>
</filter>
<filter id="filter9_i_28_2586" x="301.674" y="268.1" width="116.566" height="134.866" filterUnits="userSpaceOnUse" color-interpolation-filters="sRGB">
<feFlood flood-opacity="0" result="BackgroundImageFix"/>
<feBlend mode="normal" in="SourceGraphic" in2="BackgroundImageFix" result="shape"/>
<feColorMatrix in="SourceAlpha" type="matrix" values="0 0 0 0 0 0 0 0 0 0 0 0 0 0 0 0 0 0 127 0" result="hardAlpha"/>
<feOffset dx="0.516104" dy="-0.129026"/>
<feGaussianBlur stdDeviation="0.129026"/>
<feComposite in2="hardAlpha" operator="arithmetic" k2="-1" k3="1"/>
<feColorMatrix type="matrix" values="0 0 0 0 0 0 0 0 0 0 0 0 0 0 0 0 0 0 0.2 0"/>
<feBlend mode="normal" in2="shape" result="effect1_innerShadow_28_2586"/>
</filter>
<filter id="filter10_f_28_2586" x="314.097" y="267.127" width="110.255" height="122.901" filterUnits="userSpaceOnUse" color-interpolation-filters="sRGB">
<feFlood flood-opacity="0" result="BackgroundImageFix"/>
<feBlend mode="normal" in="SourceGraphic" in2="BackgroundImageFix" result="shape"/>
<feGaussianBlur stdDeviation="0.129026" result="effect1_foregroundBlur_28_2586"/>
</filter>
<filter id="filter11_i_28_2586" x="325.878" y="267.256" width="98.4738" height="113.907" filterUnits="userSpaceOnUse" color-interpolation-filters="sRGB">
<feFlood flood-opacity="0" result="BackgroundImageFix"/>
<feBlend mode="normal" in="SourceGraphic" in2="BackgroundImageFix" result="shape"/>
<feColorMatrix in="SourceAlpha" type="matrix" values="0 0 0 0 0 0 0 0 0 0 0 0 0 0 0 0 0 0 127 0" result="hardAlpha"/>
<feOffset dx="0.516104" dy="-0.129026"/>
<feGaussianBlur stdDeviation="0.129026"/>
<feComposite in2="hardAlpha" operator="arithmetic" k2="-1" k3="1"/>
<feColorMatrix type="matrix" values="0 0 0 0 0 0 0 0 0 0 0 0 0 0 0 0 0 0 0.2 0"/>
<feBlend mode="normal" in2="shape" result="effect1_innerShadow_28_2586"/>
</filter>
<filter id="filter12_f_28_2586" x="340.529" y="270.606" width="85.3127" height="95.0843" filterUnits="userSpaceOnUse" color-interpolation-filters="sRGB">
<feFlood flood-opacity="0" result="BackgroundImageFix"/>
<feBlend mode="normal" in="SourceGraphic" in2="BackgroundImageFix" result="shape"/>
<feGaussianBlur stdDeviation="0.129026" result="effect1_foregroundBlur_28_2586"/>
</filter>
<filter id="filter13_i_28_2586" x="349.691" y="270.735" width="76.1508" height="88.0472" filterUnits="userSpaceOnUse" color-interpolation-filters="sRGB">
<feFlood flood-opacity="0" result="BackgroundImageFix"/>
<feBlend mode="normal" in="SourceGraphic" in2="BackgroundImageFix" result="shape"/>
<feColorMatrix in="SourceAlpha" type="matrix" values="0 0 0 0 0 0 0 0 0 0 0 0 0 0 0 0 0 0 127 0" result="hardAlpha"/>
<feOffset dx="0.516104" dy="-0.129026"/>
<feGaussianBlur stdDeviation="0.129026"/>
<feComposite in2="hardAlpha" operator="arithmetic" k2="-1" k3="1"/>
<feColorMatrix type="matrix" values="0 0 0 0 0 0 0 0 0 0 0 0 0 0 0 0 0 0 0.2 0"/>
<feBlend mode="normal" in2="shape" result="effect1_innerShadow_28_2586"/>
</filter>
<filter id="filter14_f_28_2586" x="366.251" y="277.402" width="57.3787" height="63.9316" filterUnits="userSpaceOnUse" color-interpolation-filters="sRGB">
<feFlood flood-opacity="0" result="BackgroundImageFix"/>
<feBlend mode="normal" in="SourceGraphic" in2="BackgroundImageFix" result="shape"/>
<feGaussianBlur stdDeviation="0.129026" result="effect1_foregroundBlur_28_2586"/>
</filter>
<filter id="filter15_i_28_2586" x="372.479" y="277.531" width="51.15" height="59.085" filterUnits="userSpaceOnUse" color-interpolation-filters="sRGB">
<feFlood flood-opacity="0" result="BackgroundImageFix"/>
<feBlend mode="normal" in="SourceGraphic" in2="BackgroundImageFix" result="shape"/>
<feColorMatrix in="SourceAlpha" type="matrix" values="0 0 0 0 0 0 0 0 0 0 0 0 0 0 0 0 0 0 127 0" result="hardAlpha"/>
<feOffset dx="0.516104" dy="-0.129026"/>
<feGaussianBlur stdDeviation="0.129026"/>
<feComposite in2="hardAlpha" operator="arithmetic" k2="-1" k3="1"/>
<feColorMatrix type="matrix" values="0 0 0 0 0 0 0 0 0 0 0 0 0 0 0 0 0 0 0.2 0"/>
<feBlend mode="normal" in2="shape" result="effect1_innerShadow_28_2586"/>
</filter>
<linearGradient id="paint0_linear_28_2586" x1="10" y1="18" x2="424" y2="364" gradientUnits="userSpaceOnUse">
<stop stop-color="#FEF0E9"/>
<stop offset="1" stop-color="#FDF99A"/>
</linearGradient>
<radialGradient id="paint1_radial_28_2586" cx="0" cy="0" r="1" gradientUnits="userSpaceOnUse" gradientTransform="translate(320.411 354.701) rotate(156.344) scale(48.9398 75.7969)">
<stop stop-color="#91A8BA"/>
<stop offset="0.674805" stop-color="#414F5E"/>
<stop offset="1" stop-color="#2F3B4A"/>
</radialGradient>
<linearGradient id="paint2_linear_28_2586" x1="314.029" y1="336.017" x2="315.037" y2="353.393" gradientUnits="userSpaceOnUse">
<stop stop-color="#C1C8CE"/>
<stop offset="1" stop-color="#C1C8CE" />
</linearGradient>
<radialGradient id="paint3_radial_28_2586" cx="0" cy="0" r="1" gradientUnits="userSpaceOnUse" gradientTransform="translate(320.411 354.701) rotate(156.344) scale(48.9398 75.7969)">
<stop stop-color="#91A8BA"/>
<stop offset="0.674805" stop-color="#414F5E"/>
<stop offset="1" stop-color="#2F3B4A"/>
</radialGradient>
<linearGradient id="paint4_linear_28_2586" x1="314.029" y1="336.017" x2="315.037" y2="353.393" gradientUnits="userSpaceOnUse">
<stop stop-color="#C1C8CE"/>
<stop offset="1" stop-color="#C1C8CE" />
</linearGradient>
<radialGradient id="paint5_radial_28_2586" cx="0" cy="0" r="1" gradientUnits="userSpaceOnUse" gradientTransform="translate(336.786 337.266) rotate(156.344) scale(72.9816 113.032)">
<stop stop-color="#91A8BA"/>
<stop offset="0.674805" stop-color="#414F5E"/>
<stop offset="1" stop-color="#2F3B4A"/>
</radialGradient>
<linearGradient id="paint6_linear_28_2586" x1="327.27" y1="309.403" x2="328.773" y2="335.315" gradientUnits="userSpaceOnUse">
<stop stop-color="#C1C8CE"/>
<stop offset="1" stop-color="#C1C8CE" />
</linearGradient>
<radialGradient id="paint7_radial_28_2586" cx="0" cy="0" r="1" gradientUnits="userSpaceOnUse" gradientTransform="translate(285.357 318.295) rotate(67.2199) scale(88.1919 61.4639)">
<stop stop-color="white"/>
<stop offset="0.385317" stop-color="#ECCA97"/>
<stop offset="0.385417" stop-color="#DEA248"/>
<stop offset="1" stop-color="#181005"/>
</radialGradient>
<linearGradient id="paint8_linear_28_2586" x1="327.27" y1="359.918" x2="296.747" y2="382.716" gradientUnits="userSpaceOnUse">
<stop offset="0.160241" stop-color="#9C5615" />
<stop offset="1" stop-color="#C75D0F"/>
</linearGradient>
<radialGradient id="paint9_radial_28_2586" cx="0" cy="0" r="1" gradientUnits="userSpaceOnUse" gradientTransform="translate(354.947 319.127) rotate(143.984) scale(87.6602 135.766)">
<stop stop-color="#91A8BA"/>
<stop offset="0.674805" stop-color="#414F5E"/>
<stop offset="1" stop-color="#2F3B4A"/>
</radialGradient>
<linearGradient id="paint10_linear_28_2586" x1="342.61" y1="281.235" x2="326.516" y2="343.947" gradientUnits="userSpaceOnUse">
<stop stop-color="#FFAB20"/>
<stop offset="1" stop-color="#EAD3A6" />
</linearGradient>
<radialGradient id="paint11_radial_28_2586" cx="0" cy="0" r="1" gradientUnits="userSpaceOnUse" gradientTransform="translate(339.924 358.54) rotate(83.096) scale(70.0469 39.6933)">
<stop offset="0.0792988"/>
<stop offset="0.771177" stopOpacity="0.915314"/>
<stop offset="0.89233" stopOpacity="0.21756"/>
<stop offset="1" />
</radialGradient>
<radialGradient id="paint12_radial_28_2586" cx="0" cy="0" r="1" gradientUnits="userSpaceOnUse" gradientTransform="translate(288.39 294.577) rotate(67.2199) scale(114.133 79.5429)">
<stop stop-color="white"/>
<stop offset="0.385317" stop-color="#ECCA97"/>
<stop offset="0.385417" stop-color="#DEA248"/>
<stop offset="1" stop-color="#181005"/>
</radialGradient>
<linearGradient id="paint13_linear_28_2586" x1="342.631" y1="348.443" x2="303.13" y2="377.947" gradientUnits="userSpaceOnUse">
<stop offset="0.160241" stop-color="#9C5615" />
<stop offset="1" stop-color="#C75D0F"/>
</linearGradient>
<radialGradient id="paint14_radial_28_2586" cx="0" cy="0" r="1" gradientUnits="userSpaceOnUse" gradientTransform="translate(374.412 300.881) rotate(143.984) scale(103.808 160.775)">
<stop stop-color="#91A8BA"/>
<stop offset="0.674805" stop-color="#414F5E"/>
<stop offset="1" stop-color="#2F3B4A"/>
</radialGradient>
<linearGradient id="paint15_linear_28_2586" x1="359.802" y1="256.009" x2="340.744" y2="330.273" gradientUnits="userSpaceOnUse">
<stop stop-color="#FFAB20"/>
<stop offset="1" stop-color="#EAD3A6" />
</linearGradient>
<radialGradient id="paint16_radial_28_2586" cx="0" cy="0" r="1" gradientUnits="userSpaceOnUse" gradientTransform="translate(356.623 347.554) rotate(83.5479) scale(68.6211 38.8853)">
<stop offset="0.0792988"/>
<stop offset="0.771177" stopOpacity="0.915314"/>
<stop offset="0.89233" stopOpacity="0.21756"/>
<stop offset="1" />
</radialGradient>
<radialGradient id="paint17_radial_28_2586" cx="0" cy="0" r="1" gradientUnits="userSpaceOnUse" gradientTransform="translate(295.595 271.809) rotate(67.2199) scale(135.156 94.1951)">
<stop stop-color="white"/>
<stop offset="0.385317" stop-color="#ECCA97"/>
<stop offset="0.385417" stop-color="#DEA248"/>
<stop offset="0.713542" stop-color="#795826"/>
<stop offset="0.885417" stop-color="#3F2D12"/>
<stop offset="1" stop-color="#181005"/>
</radialGradient>
<linearGradient id="paint18_linear_28_2586" x1="359.828" y1="335.597" x2="313.051" y2="370.536" gradientUnits="userSpaceOnUse">
<stop offset="0.160241" stop-color="#9C5615" />
<stop offset="1" stop-color="#C75D0F"/>
</linearGradient>
<radialGradient id="paint19_radial_28_2586" cx="0" cy="0" r="1" gradientUnits="userSpaceOnUse" gradientTransform="translate(387.301 294.958) rotate(143.984) scale(87.6602 135.766)">
<stop stop-color="#91A8BA"/>
<stop offset="0.674805" stop-color="#414F5E"/>
<stop offset="1" stop-color="#2F3B4A"/>
</radialGradient>
<linearGradient id="paint20_linear_28_2586" x1="378.622" y1="250.158" x2="358.87" y2="319.778" gradientUnits="userSpaceOnUse">
<stop stop-color="#FFAB20"/>
<stop offset="1" stop-color="#EAD3A6" />
</linearGradient>
<radialGradient id="paint21_radial_28_2586" cx="0" cy="0" r="1" gradientUnits="userSpaceOnUse" gradientTransform="translate(372.279 334.371) rotate(83.5479) scale(57.9469 32.8366)">
<stop offset="0.0792988"/>
<stop offset="0.771177" stopOpacity="0.915314"/>
<stop offset="0.89233" stopOpacity="0.21756"/>
<stop offset="1" />
</radialGradient>
<radialGradient id="paint22_radial_28_2586" cx="0" cy="0" r="1" gradientUnits="userSpaceOnUse" gradientTransform="translate(321.344 252.429) rotate(70.5157) scale(130.693 91.0844)">
<stop stop-color="white"/>
<stop offset="0.385317" stop-color="#ECCA97"/>
<stop offset="0.385417" stop-color="#DEA248"/>
<stop offset="1" stop-color="#181005"/>
</radialGradient>
<linearGradient id="paint23_linear_28_2586" x1="374.986" y1="324.274" x2="335.485" y2="353.778" gradientUnits="userSpaceOnUse">
<stop offset="0.160241" stop-color="#9C5615" />
<stop offset="1" stop-color="#C75D0F"/>
</linearGradient>
<radialGradient id="paint24_radial_28_2586" cx="0" cy="0" r="1" gradientUnits="userSpaceOnUse" gradientTransform="translate(397.154 292.171) rotate(143.984) scale(67.7363 104.908)">
<stop stop-color="#91A8BA"/>
<stop offset="0.674805" stop-color="#414F5E"/>
<stop offset="1" stop-color="#2F3B4A"/>
</radialGradient>
<linearGradient id="paint25_linear_28_2586" x1="390.448" y1="257.553" x2="375.185" y2="311.349" gradientUnits="userSpaceOnUse">
<stop stop-color="#FFAB20"/>
<stop offset="1" stop-color="#EAD3A6" />
</linearGradient>
<radialGradient id="paint26_radial_28_2586" cx="0" cy="0" r="1" gradientUnits="userSpaceOnUse" gradientTransform="translate(385.546 322.626) rotate(83.5479) scale(44.7764 25.3733)">
<stop offset="0.0792988"/>
<stop offset="0.552348" stopOpacity="0.915314"/>
<stop offset="0.812141" stopOpacity="0.21756"/>
<stop offset="1" />
</radialGradient>
<radialGradient id="paint27_radial_28_2586" cx="0" cy="0" r="1" gradientUnits="userSpaceOnUse" gradientTransform="translate(348.669 262.689) rotate(71.2317) scale(96.9809 67.5893)">
<stop stop-color="white"/>
<stop offset="0.385317" stop-color="#ECCA97"/>
<stop offset="0.385417" stop-color="#DEA248"/>
<stop offset="1" stop-color="#181005"/>
</radialGradient>
<linearGradient id="paint28_linear_28_2586" x1="387.637" y1="314.823" x2="357.115" y2="337.621" gradientUnits="userSpaceOnUse">
<stop offset="0.160241" stop-color="#9C5615" />
<stop offset="1" stop-color="#C75D0F"/>
</linearGradient>
<radialGradient id="paint29_radial_28_2586" cx="0" cy="0" r="1" gradientUnits="userSpaceOnUse" gradientTransform="translate(404.307 291.948) rotate(143.984) scale(45.4224 70.3492)">
<stop stop-color="#91A8BA"/>
<stop offset="0.674805" stop-color="#414F5E"/>
<stop offset="1" stop-color="#2F3B4A"/>
</radialGradient>
<linearGradient id="paint30_linear_28_2586" x1="399.81" y1="268.734" x2="389.575" y2="304.809" gradientUnits="userSpaceOnUse">
<stop stop-color="#FFAB20"/>
<stop offset="1" stop-color="#EAD3A6" />
</linearGradient>
<radialGradient id="paint31_radial_28_2586" cx="0" cy="0" r="1" gradientUnits="userSpaceOnUse" gradientTransform="translate(371.017 271.031) rotate(70.915) scale(66.3704 46.2558)">
<stop stop-color="white"/>
<stop offset="0.385317" stop-color="#ECCA97"/>
<stop offset="0.385417" stop-color="#DEA248"/>
<stop offset="1" stop-color="#181005"/>
</radialGradient>
<linearGradient id="paint32_linear_28_2586" x1="397.926" y1="307.138" x2="377.458" y2="322.426" gradientUnits="userSpaceOnUse">
<stop offset="0.160241" stop-color="#9C5615" />
<stop offset="1" stop-color="#C75D0F"/>
</linearGradient>
</defs>
</svg>
