<svg width="388" height="341" viewBox="0 0 388 341" fill="none" xmlns="http://www.w3.org/2000/svg">
<mask id="mask0_28_2138" style="mask-type:alpha" maskUnits="userSpaceOnUse" x="0" y="0" width="388" height="341">
<path fill-rule="evenodd" clip-rule="evenodd" d="M275 320C275 331.598 265.598 341 254 341L21 341C9.40202 341 -8.21951e-07 331.598 -1.83588e-06 320L-1.00536e-05 226L-2.50903e-05 54L-2.79753e-05 21C-2.89892e-05 9.40201 9.40199 -8.2195e-07 21 -1.83588e-06L367 -3.20842e-05C378.598 -3.30981e-05 388 9.40197 388 21L388 205C388 216.598 378.598 226 367 226L296 226C284.402 226 275 235.402 275 247L275 320Z" fill="#D9D9D9"/>
</mask>
<g mask="url(#mask0_28_2138)">
<rect width="403" height="403" fill="url(#paint0_linear_28_2138)"/>
<g style="mix-blend-mode:saturation">
<g filter="url(#filter0_f_28_2138)">
<g filter="url(#filter1_i_28_2138)">
<ellipse cx="-19.0259" cy="-8.74058" rx="19.6864" ry="34.7407" transform="rotate(2.11564 -19.0259 -8.74058)" fill="#98B6D4"/>
<ellipse cx="-19.0259" cy="-8.74058" rx="19.6864" ry="34.7407" transform="rotate(2.11564 -19.0259 -8.74058)" fill="url(#paint1_radial_28_2138)" style="mix-blend-mode:hard-light"/>
<ellipse cx="-19.0259" cy="-8.74058" rx="19.6864" ry="34.7407" transform="rotate(2.11564 -19.0259 -8.74058)" fill="url(#paint2_linear_28_2138)"/>
</g>
</g>
<g filter="url(#filter2_f_28_2138)">
<g filter="url(#filter3_i_28_2138)">
<ellipse cx="-19.0259" cy="-8.74058" rx="19.6864" ry="34.7407" transform="rotate(2.11564 -19.0259 -8.74058)" fill="#98B6D4"/>
<ellipse cx="-19.0259" cy="-8.74058" rx="19.6864" ry="34.7407" transform="rotate(2.11564 -19.0259 -8.74058)" fill="url(#paint3_radial_28_2138)" style="mix-blend-mode:hard-light"/>
<ellipse cx="-19.0259" cy="-8.74058" rx="19.6864" ry="34.7407" transform="rotate(2.11564 -19.0259 -8.74058)" fill="url(#paint4_linear_28_2138)"/>
</g>
</g>
<g filter="url(#filter4_f_28_2138)">
<g filter="url(#filter5_i_28_2138)">
<ellipse cx="-2.03514" cy="-8.18166" rx="29.3574" ry="51.8071" transform="rotate(2.11564 -2.03514 -8.18166)" fill="#98B6D4"/>
<ellipse cx="-2.03514" cy="-8.18166" rx="29.3574" ry="51.8071" transform="rotate(2.11564 -2.03514 -8.18166)" fill="url(#paint5_radial_28_2138)" style="mix-blend-mode:hard-light"/>
<ellipse cx="-2.03514" cy="-8.18166" rx="29.3574" ry="51.8071" transform="rotate(2.11564 -2.03514 -8.18166)" fill="url(#paint6_linear_28_2138)"/>
</g>
</g>
<g filter="url(#filter6_f_28_2138)">
<g filter="url(#filter7_i_28_2138)">
<ellipse cx="17.6164" cy="-7.45712" rx="37.9925" ry="67.0456" transform="rotate(2.11564 17.6164 -7.45712)" fill="#034C80"/>
<ellipse cx="17.6164" cy="-7.45712" rx="37.9925" ry="67.0456" transform="rotate(2.11564 17.6164 -7.45712)" fill="url(#paint7_radial_28_2138)" style="mix-blend-mode:hard-light"/>
<ellipse cx="17.6164" cy="-7.45712" rx="37.9925" ry="67.0456" transform="rotate(2.11564 17.6164 -7.45712)" fill="url(#paint8_linear_28_2138)" style="mix-blend-mode:color-dodge"/>
<ellipse cx="17.6164" cy="-7.45712" rx="37.9925" ry="67.0456" transform="rotate(2.11564 17.6164 -7.45712)" fill="url(#paint9_radial_28_2138)" style="mix-blend-mode:soft-light"/>
</g>
<path d="M0.401248 58.9982L15.0811 59.5406C-5.85751 58.7098 -21.716 28.1081 -20.3503 -8.85958C-18.9834 -45.8626 -0.876989 -75.2316 20.0914 -74.457L5.40907 -74.9994C5.38986 -75.0002 5.37064 -75.0009 5.35142 -75.0016C-15.617 -75.7763 -33.7234 -46.4073 -35.0903 -9.40425C-36.4573 27.5988 -20.5671 58.2236 0.401248 58.9982Z" fill="url(#paint10_radial_28_2138)"/>
<path d="M0.401248 58.9982L15.0811 59.5406C-5.85751 58.7098 -21.716 28.1081 -20.3503 -8.85958C-18.9834 -45.8626 -0.876989 -75.2316 20.0914 -74.457L5.40907 -74.9994C5.38986 -75.0002 5.37064 -75.0009 5.35142 -75.0016C-15.617 -75.7763 -33.7234 -46.4073 -35.0903 -9.40425C-36.4573 27.5988 -20.5671 58.2236 0.401248 58.9982Z" fill="url(#paint11_linear_28_2138)" fill-opacity="0.5" style="mix-blend-mode:color"/>
</g>
<g filter="url(#filter8_f_28_2138)">
<g filter="url(#filter9_i_28_2138)">
<ellipse cx="39.6149" cy="-6.6458" rx="44.991" ry="79.3959" transform="rotate(2.11564 39.6149 -6.6458)" fill="#034C80"/>
<ellipse cx="39.6149" cy="-6.6458" rx="44.991" ry="79.3959" transform="rotate(2.11564 39.6149 -6.6458)" fill="url(#paint12_radial_28_2138)" style="mix-blend-mode:hard-light"/>
<ellipse cx="39.6149" cy="-6.6458" rx="44.991" ry="79.3959" transform="rotate(2.11564 39.6149 -6.6458)" fill="url(#paint13_linear_28_2138)" style="mix-blend-mode:color-dodge"/>
<ellipse cx="39.6149" cy="-6.6458" rx="44.991" ry="79.3959" transform="rotate(2.11564 39.6149 -6.6458)" fill="url(#paint14_radial_28_2138)" style="mix-blend-mode:soft-light"/>
</g>
<path d="M19.2287 72.0511L36.6127 72.6934C11.817 71.7095 -6.96264 35.4709 -5.34544 -8.30651C-3.72668 -52.1257 17.715 -86.9046 42.5459 -85.9873L25.159 -86.6297C25.1362 -86.6306 25.1135 -86.6315 25.0907 -86.6323C0.259818 -87.5496 -21.1819 -52.7707 -22.8006 -8.95152C-24.4194 34.8677 -5.60221 71.1338 19.2287 72.0511Z" fill="url(#paint15_radial_28_2138)"/>
<path d="M19.2287 72.0511L36.6127 72.6934C11.817 71.7095 -6.96264 35.4709 -5.34544 -8.30651C-3.72668 -52.1257 17.715 -86.9046 42.5459 -85.9873L25.159 -86.6297C25.1362 -86.6306 25.1135 -86.6315 25.0907 -86.6323C0.259818 -87.5496 -21.1819 -52.7707 -22.8006 -8.95152C-24.4194 34.8677 -5.60221 71.1338 19.2287 72.0511Z" fill="url(#paint16_linear_28_2138)" fill-opacity="0.5" style="mix-blend-mode:color"/>
</g>
<g filter="url(#filter10_f_28_2138)">
<g filter="url(#filter11_i_28_2138)">
<ellipse cx="59.0062" cy="-5.93063" rx="37.9925" ry="67.0456" transform="rotate(2.11564 59.0062 -5.93063)" fill="#034C80"/>
<ellipse cx="59.0062" cy="-5.93063" rx="37.9925" ry="67.0456" transform="rotate(2.11564 59.0062 -5.93063)" fill="url(#paint17_radial_28_2138)" style="mix-blend-mode:hard-light"/>
<ellipse cx="59.0062" cy="-5.93063" rx="37.9925" ry="67.0456" transform="rotate(2.11564 59.0062 -5.93063)" fill="url(#paint18_linear_28_2138)" style="mix-blend-mode:color-dodge"/>
<ellipse cx="59.0062" cy="-5.93063" rx="37.9925" ry="67.0456" transform="rotate(2.11564 59.0062 -5.93063)" fill="url(#paint19_radial_28_2138)" style="mix-blend-mode:soft-light"/>
</g>
<path d="M41.791 60.5247L56.4709 61.0671C35.5323 60.2363 19.6738 29.6346 21.0395 -7.33309C22.4064 -44.3361 40.5128 -73.7051 61.4812 -72.9305L46.7988 -73.473C46.7796 -73.4737 46.7604 -73.4744 46.7412 -73.4752C25.7728 -74.2498 7.66641 -44.8808 6.29946 -7.87776C4.93251 29.1253 20.8226 59.7501 41.791 60.5247Z" fill="url(#paint20_radial_28_2138)"/>
<path d="M41.791 60.5247L56.4709 61.0671C35.5323 60.2363 19.6738 29.6346 21.0395 -7.33309C22.4064 -44.3361 40.5128 -73.7051 61.4812 -72.9305L46.7988 -73.473C46.7796 -73.4737 46.7604 -73.4744 46.7412 -73.4752C25.7728 -74.2498 7.66641 -44.8808 6.29946 -7.87776C4.93251 29.1253 20.8226 59.7501 41.791 60.5247Z" fill="url(#paint21_linear_28_2138)" fill-opacity="0.5" style="mix-blend-mode:color"/>
</g>
<g filter="url(#filter12_f_28_2138)">
<g filter="url(#filter13_i_28_2138)">
<ellipse cx="75.1912" cy="-5.33327" rx="29.3574" ry="51.8071" transform="rotate(2.11564 75.1912 -5.33327)" fill="#034C80"/>
<ellipse cx="75.1912" cy="-5.33327" rx="29.3574" ry="51.8071" transform="rotate(2.11564 75.1912 -5.33327)" fill="url(#paint22_radial_28_2138)" style="mix-blend-mode:hard-light"/>
<ellipse cx="75.1912" cy="-5.33327" rx="29.3574" ry="51.8071" transform="rotate(2.11564 75.1912 -5.33327)" fill="url(#paint23_linear_28_2138)" style="mix-blend-mode:color-dodge"/>
<ellipse cx="75.1912" cy="-5.33327" rx="29.3574" ry="51.8071" transform="rotate(2.11564 75.1912 -5.33327)" fill="url(#paint24_radial_28_2138)" style="mix-blend-mode:soft-light"/>
</g>
<path d="M61.8892 46.0175L73.2326 46.4366C57.053 45.7946 44.7989 22.1483 45.8542 -6.41721C46.9104 -35.01 60.9015 -57.7038 77.1041 -57.1053L65.7588 -57.5244C65.744 -57.525 65.7291 -57.5256 65.7143 -57.5261C49.5117 -58.1247 35.5206 -35.4309 34.4644 -6.83808C33.4081 21.7547 45.6866 45.419 61.8892 46.0175Z" fill="url(#paint25_radial_28_2138)"/>
<path d="M61.8892 46.0175L73.2326 46.4366C57.053 45.7946 44.7989 22.1483 45.8542 -6.41721C46.9104 -35.01 60.9015 -57.7038 77.1041 -57.1053L65.7588 -57.5244C65.744 -57.525 65.7291 -57.5256 65.7143 -57.5261C49.5117 -58.1247 35.5206 -35.4309 34.4644 -6.83808C33.4081 21.7547 45.6866 45.419 61.8892 46.0175Z" fill="url(#paint26_linear_28_2138)" fill-opacity="0.5" style="mix-blend-mode:color"/>
</g>
<g filter="url(#filter14_f_28_2138)">
<g filter="url(#filter15_i_28_2138)">
<ellipse cx="88.3525" cy="-4.84751" rx="19.6864" ry="34.7407" transform="rotate(2.11564 88.3525 -4.84751)" fill="#034C80"/>
<ellipse cx="88.3525" cy="-4.84751" rx="19.6864" ry="34.7407" transform="rotate(2.11564 88.3525 -4.84751)" fill="url(#paint27_radial_28_2138)" style="mix-blend-mode:hard-light"/>
<ellipse cx="88.3525" cy="-4.84751" rx="19.6864" ry="34.7407" transform="rotate(2.11564 88.3525 -4.84751)" fill="url(#paint28_linear_28_2138)" style="mix-blend-mode:color-dodge"/>
</g>
<path d="M79.4323 29.5873L87.0389 29.8683C76.1893 29.4378 67.972 13.5811 68.6796 -5.57424C69.3879 -24.7479 78.77 -39.9659 89.6351 -39.5645L82.0272 -39.8456C82.0172 -39.846 82.0073 -39.8464 81.9973 -39.8467C71.1322 -40.2481 61.7502 -25.0301 61.0419 -5.85647C60.3336 13.3172 68.5672 29.1859 79.4323 29.5873Z" fill="url(#paint29_radial_28_2138)"/>
<path d="M79.4323 29.5873L87.0389 29.8683C76.1893 29.4378 67.972 13.5811 68.6796 -5.57424C69.3879 -24.7479 78.77 -39.9659 89.6351 -39.5645L82.0272 -39.8456C82.0172 -39.846 82.0073 -39.8464 81.9973 -39.8467C71.1322 -40.2481 61.7502 -25.0301 61.0419 -5.85647C60.3336 13.3172 68.5672 29.1859 79.4323 29.5873Z" fill="url(#paint30_linear_28_2138)" fill-opacity="0.5" style="mix-blend-mode:color"/>
</g>
</g>
</g>
<defs>
<filter id="filter0_f_28_2138" x="-46.6437" y="-44.0122" width="47.5979" height="70.261" filterUnits="userSpaceOnUse" color-interpolation-filters="sRGB">
<feFlood flood-opacity="0" result="BackgroundImageFix"/>
<feBlend mode="normal" in="SourceGraphic" in2="BackgroundImageFix" result="shape"/>
<feGaussianBlur stdDeviation="0.132326" result="effect1_foregroundBlur_28_2138"/>
</filter>
<filter id="filter1_i_28_2138" x="-38.7413" y="-43.5977" width="39.6956" height="69.5818" filterUnits="userSpaceOnUse" color-interpolation-filters="sRGB">
<feFlood flood-opacity="0" result="BackgroundImageFix"/>
<feBlend mode="normal" in="SourceGraphic" in2="BackgroundImageFix" result="shape"/>
<feColorMatrix in="SourceAlpha" type="matrix" values="0 0 0 0 0 0 0 0 0 0 0 0 0 0 0 0 0 0 127 0" result="hardAlpha"/>
<feOffset dx="0.529306" dy="-0.132326"/>
<feGaussianBlur stdDeviation="0.132326"/>
<feComposite in2="hardAlpha" operator="arithmetic" k2="-1" k3="1"/>
<feColorMatrix type="matrix" values="0 0 0 0 0 0 0 0 0 0 0 0 0 0 0 0 0 0 0.2 0"/>
<feBlend mode="normal" in2="shape" result="effect1_innerShadow_28_2138"/>
</filter>
<filter id="filter2_f_28_2138" x="-46.6437" y="-44.0122" width="47.5979" height="70.261" filterUnits="userSpaceOnUse" color-interpolation-filters="sRGB">
<feFlood flood-opacity="0" result="BackgroundImageFix"/>
<feBlend mode="normal" in="SourceGraphic" in2="BackgroundImageFix" result="shape"/>
<feGaussianBlur stdDeviation="0.132326" result="effect1_foregroundBlur_28_2138"/>
</filter>
<filter id="filter3_i_28_2138" x="-38.7413" y="-43.5977" width="39.6956" height="69.5818" filterUnits="userSpaceOnUse" color-interpolation-filters="sRGB">
<feFlood flood-opacity="0" result="BackgroundImageFix"/>
<feBlend mode="normal" in="SourceGraphic" in2="BackgroundImageFix" result="shape"/>
<feColorMatrix in="SourceAlpha" type="matrix" values="0 0 0 0 0 0 0 0 0 0 0 0 0 0 0 0 0 0 127 0" result="hardAlpha"/>
<feOffset dx="0.529306" dy="-0.132326"/>
<feGaussianBlur stdDeviation="0.132326"/>
<feComposite in2="hardAlpha" operator="arithmetic" k2="-1" k3="1"/>
<feColorMatrix type="matrix" values="0 0 0 0 0 0 0 0 0 0 0 0 0 0 0 0 0 0 0.2 0"/>
<feBlend mode="normal" in2="shape" result="effect1_innerShadow_28_2138"/>
</filter>
<filter id="filter4_f_28_2138" x="-43.09" y="-60.6508" width="70.7202" height="104.517" filterUnits="userSpaceOnUse" color-interpolation-filters="sRGB">
<feFlood flood-opacity="0" result="BackgroundImageFix"/>
<feBlend mode="normal" in="SourceGraphic" in2="BackgroundImageFix" result="shape"/>
<feGaussianBlur stdDeviation="0.132326" result="effect1_foregroundBlur_28_2138"/>
</filter>
<filter id="filter5_i_28_2138" x="-31.4358" y="-60.0974" width="59.066" height="103.699" filterUnits="userSpaceOnUse" color-interpolation-filters="sRGB">
<feFlood flood-opacity="0" result="BackgroundImageFix"/>
<feBlend mode="normal" in="SourceGraphic" in2="BackgroundImageFix" result="shape"/>
<feColorMatrix in="SourceAlpha" type="matrix" values="0 0 0 0 0 0 0 0 0 0 0 0 0 0 0 0 0 0 127 0" result="hardAlpha"/>
<feOffset dx="0.529306" dy="-0.132326"/>
<feGaussianBlur stdDeviation="0.132326"/>
<feComposite in2="hardAlpha" operator="arithmetic" k2="-1" k3="1"/>
<feColorMatrix type="matrix" values="0 0 0 0 0 0 0 0 0 0 0 0 0 0 0 0 0 0 0.2 0"/>
<feBlend mode="normal" in2="shape" result="effect1_innerShadow_28_2138"/>
</filter>
<filter id="filter6_f_28_2138" x="-35.4369" y="-75.2813" width="91.3666" height="135.104" filterUnits="userSpaceOnUse" color-interpolation-filters="sRGB">
<feFlood flood-opacity="0" result="BackgroundImageFix"/>
<feBlend mode="normal" in="SourceGraphic" in2="BackgroundImageFix" result="shape"/>
<feGaussianBlur stdDeviation="0.132326" result="effect1_foregroundBlur_28_2138"/>
</filter>
<filter id="filter7_i_28_2138" x="-20.4323" y="-74.6044" width="76.3619" height="134.162" filterUnits="userSpaceOnUse" color-interpolation-filters="sRGB">
<feFlood flood-opacity="0" result="BackgroundImageFix"/>
<feBlend mode="normal" in="SourceGraphic" in2="BackgroundImageFix" result="shape"/>
<feColorMatrix in="SourceAlpha" type="matrix" values="0 0 0 0 0 0 0 0 0 0 0 0 0 0 0 0 0 0 127 0" result="hardAlpha"/>
<feOffset dx="0.529306" dy="-0.132326"/>
<feGaussianBlur stdDeviation="0.132326"/>
<feComposite in2="hardAlpha" operator="arithmetic" k2="-1" k3="1"/>
<feColorMatrix type="matrix" values="0 0 0 0 0 0 0 0 0 0 0 0 0 0 0 0 0 0 0.2 0"/>
<feBlend mode="normal" in2="shape" result="effect1_innerShadow_28_2138"/>
</filter>
<filter id="filter8_f_28_2138" x="-23.1624" y="-86.9147" width="108.099" height="159.893" filterUnits="userSpaceOnUse" color-interpolation-filters="sRGB">
<feFlood flood-opacity="0" result="BackgroundImageFix"/>
<feBlend mode="normal" in="SourceGraphic" in2="BackgroundImageFix" result="shape"/>
<feGaussianBlur stdDeviation="0.132326" result="effect1_foregroundBlur_28_2138"/>
</filter>
<filter id="filter9_i_28_2138" x="-5.4425" y="-86.1376" width="90.3794" height="158.851" filterUnits="userSpaceOnUse" color-interpolation-filters="sRGB">
<feFlood flood-opacity="0" result="BackgroundImageFix"/>
<feBlend mode="normal" in="SourceGraphic" in2="BackgroundImageFix" result="shape"/>
<feColorMatrix in="SourceAlpha" type="matrix" values="0 0 0 0 0 0 0 0 0 0 0 0 0 0 0 0 0 0 127 0" result="hardAlpha"/>
<feOffset dx="0.529306" dy="-0.132326"/>
<feGaussianBlur stdDeviation="0.132326"/>
<feComposite in2="hardAlpha" operator="arithmetic" k2="-1" k3="1"/>
<feColorMatrix type="matrix" values="0 0 0 0 0 0 0 0 0 0 0 0 0 0 0 0 0 0 0.2 0"/>
<feBlend mode="normal" in2="shape" result="effect1_innerShadow_28_2138"/>
</filter>
<filter id="filter10_f_28_2138" x="5.95288" y="-73.7548" width="91.3667" height="135.104" filterUnits="userSpaceOnUse" color-interpolation-filters="sRGB">
<feFlood flood-opacity="0" result="BackgroundImageFix"/>
<feBlend mode="normal" in="SourceGraphic" in2="BackgroundImageFix" result="shape"/>
<feGaussianBlur stdDeviation="0.132326" result="effect1_foregroundBlur_28_2138"/>
</filter>
<filter id="filter11_i_28_2138" x="20.9575" y="-73.0779" width="76.3621" height="134.162" filterUnits="userSpaceOnUse" color-interpolation-filters="sRGB">
<feFlood flood-opacity="0" result="BackgroundImageFix"/>
<feBlend mode="normal" in="SourceGraphic" in2="BackgroundImageFix" result="shape"/>
<feColorMatrix in="SourceAlpha" type="matrix" values="0 0 0 0 0 0 0 0 0 0 0 0 0 0 0 0 0 0 127 0" result="hardAlpha"/>
<feOffset dx="0.529306" dy="-0.132326"/>
<feGaussianBlur stdDeviation="0.132326"/>
<feComposite in2="hardAlpha" operator="arithmetic" k2="-1" k3="1"/>
<feColorMatrix type="matrix" values="0 0 0 0 0 0 0 0 0 0 0 0 0 0 0 0 0 0 0.2 0"/>
<feBlend mode="normal" in2="shape" result="effect1_innerShadow_28_2138"/>
</filter>
<filter id="filter12_f_28_2138" x="34.1363" y="-57.8024" width="70.7201" height="104.517" filterUnits="userSpaceOnUse" color-interpolation-filters="sRGB">
<feFlood flood-opacity="0" result="BackgroundImageFix"/>
<feBlend mode="normal" in="SourceGraphic" in2="BackgroundImageFix" result="shape"/>
<feGaussianBlur stdDeviation="0.132326" result="effect1_foregroundBlur_28_2138"/>
</filter>
<filter id="filter13_i_28_2138" x="45.7905" y="-57.249" width="59.0659" height="103.699" filterUnits="userSpaceOnUse" color-interpolation-filters="sRGB">
<feFlood flood-opacity="0" result="BackgroundImageFix"/>
<feBlend mode="normal" in="SourceGraphic" in2="BackgroundImageFix" result="shape"/>
<feColorMatrix in="SourceAlpha" type="matrix" values="0 0 0 0 0 0 0 0 0 0 0 0 0 0 0 0 0 0 127 0" result="hardAlpha"/>
<feOffset dx="0.529306" dy="-0.132326"/>
<feGaussianBlur stdDeviation="0.132326"/>
<feComposite in2="hardAlpha" operator="arithmetic" k2="-1" k3="1"/>
<feColorMatrix type="matrix" values="0 0 0 0 0 0 0 0 0 0 0 0 0 0 0 0 0 0 0.2 0"/>
<feBlend mode="normal" in2="shape" result="effect1_innerShadow_28_2138"/>
</filter>
<filter id="filter14_f_28_2138" x="60.7347" y="-40.1191" width="47.5978" height="70.261" filterUnits="userSpaceOnUse" color-interpolation-filters="sRGB">
<feFlood flood-opacity="0" result="BackgroundImageFix"/>
<feBlend mode="normal" in="SourceGraphic" in2="BackgroundImageFix" result="shape"/>
<feGaussianBlur stdDeviation="0.132326" result="effect1_foregroundBlur_28_2138"/>
</filter>
<filter id="filter15_i_28_2138" x="68.6371" y="-39.7046" width="39.6954" height="69.5818" filterUnits="userSpaceOnUse" color-interpolation-filters="sRGB">
<feFlood flood-opacity="0" result="BackgroundImageFix"/>
<feBlend mode="normal" in="SourceGraphic" in2="BackgroundImageFix" result="shape"/>
<feColorMatrix in="SourceAlpha" type="matrix" values="0 0 0 0 0 0 0 0 0 0 0 0 0 0 0 0 0 0 127 0" result="hardAlpha"/>
<feOffset dx="0.529306" dy="-0.132326"/>
<feGaussianBlur stdDeviation="0.132326"/>
<feComposite in2="hardAlpha" operator="arithmetic" k2="-1" k3="1"/>
<feColorMatrix type="matrix" values="0 0 0 0 0 0 0 0 0 0 0 0 0 0 0 0 0 0 0.2 0"/>
<feBlend mode="normal" in2="shape" result="effect1_innerShadow_28_2138"/>
</filter>
<linearGradient id="paint0_linear_28_2138" x1="12" y1="331" x2="458.5" y2="-72" gradientUnits="userSpaceOnUse">
<stop offset="0.150916" stopColor="#E5FFE2"/>
<stop offset="1" stopColor="#4BFFF9"/>
</linearGradient>
<radialGradient id="paint1_radial_28_2138" cx="0" cy="0" r="1" gradientUnits="userSpaceOnUse" gradientTransform="translate(-12.4811 -24.3196) rotate(156.344) scale(50.1917 77.7357)">
<stop stopColor="#91A8BA"/>
<stop offset="0.674805" stopColor="#414F5E"/>
<stop offset="1" stopColor="#2F3B4A"/>
</radialGradient>
<linearGradient id="paint2_linear_28_2138" x1="-19.0259" y1="-43.4813" x2="-17.9922" y2="-25.6612" gradientUnits="userSpaceOnUse">
<stop stopColor="#C1C8CE"/>
<stop offset="1" stopColor="#C1C8CE" stopOpacity="0"/>
</linearGradient>
<radialGradient id="paint3_radial_28_2138" cx="0" cy="0" r="1" gradientUnits="userSpaceOnUse" gradientTransform="translate(-12.4811 -24.3196) rotate(156.344) scale(50.1917 77.7357)">
<stop stopColor="#91A8BA"/>
<stop offset="0.674805" stopColor="#414F5E"/>
<stop offset="1" stopColor="#2F3B4A"/>
</radialGradient>
<linearGradient id="paint4_linear_28_2138" x1="-19.0259" y1="-43.4813" x2="-17.9922" y2="-25.6612" gradientUnits="userSpaceOnUse">
<stop stopColor="#C1C8CE"/>
<stop offset="1" stopColor="#C1C8CE" stopOpacity="0"/>
</linearGradient>
<radialGradient id="paint5_radial_28_2138" cx="0" cy="0" r="1" gradientUnits="userSpaceOnUse" gradientTransform="translate(7.72491 -31.4139) rotate(156.344) scale(74.8484 115.924)">
<stop stopColor="#91A8BA"/>
<stop offset="0.674805" stopColor="#414F5E"/>
<stop offset="1" stopColor="#2F3B4A"/>
</radialGradient>
<linearGradient id="paint6_linear_28_2138" x1="-2.03514" y1="-59.9888" x2="-0.493537" y2="-33.4146" gradientUnits="userSpaceOnUse">
<stop stopColor="#C1C8CE"/>
<stop offset="1" stopColor="#C1C8CE" stopOpacity="0"/>
</linearGradient>
<radialGradient id="paint7_radial_28_2138" cx="0" cy="0" r="1" gradientUnits="userSpaceOnUse" gradientTransform="translate(30.2473 -37.5229) rotate(143.984) scale(89.9024 139.239)">
<stop stopColor="#91A8BA"/>
<stop offset="0.674805" stopColor="#414F5E"/>
<stop offset="1" stopColor="#2F3B4A"/>
</radialGradient>
<linearGradient id="paint8_linear_28_2138" x1="17.5946" y1="-76.3847" x2="1.08887" y2="-12.0685" gradientUnits="userSpaceOnUse">
<stop stopColor="#FFAB20"/>
<stop offset="1" stopColor="#EAD3A6" stopOpacity="0"/>
</linearGradient>
<radialGradient id="paint9_radial_28_2138" cx="0" cy="0" r="1" gradientUnits="userSpaceOnUse" gradientTransform="translate(14.8407 2.89814) rotate(83.096) scale(71.8387 40.7086)">
<stop offset="0.0792988"/>
<stop offset="0.771177" stopOpacity="0.915314"/>
<stop offset="0.89233" stopOpacity="0.21756"/>
<stop offset="1" stopOpacity="0"/>
</radialGradient>
<radialGradient id="paint10_radial_28_2138" cx="0" cy="0" r="1" gradientUnits="userSpaceOnUse" gradientTransform="translate(8.97751 -85.3786) rotate(106.092) scale(117.052 81.5775)">
<stop stopColor="white"/>
<stop offset="0.385317" stopColor="#ECCA97"/>
<stop offset="0.385417" stopColor="#DEA248"/>
<stop offset="1" stopColor="#181005"/>
</radialGradient>
<linearGradient id="paint11_linear_28_2138" x1="17.6163" y1="-7.45708" x2="-32.9128" y2="-9.3237" gradientUnits="userSpaceOnUse">
<stop offset="0.160241" stopColor="#9C5615" stopOpacity="0"/>
<stop offset="1" stopColor="#C75D0F"/>
</linearGradient>
<radialGradient id="paint12_radial_28_2138" cx="0" cy="0" r="1" gradientUnits="userSpaceOnUse" gradientTransform="translate(54.5724 -42.2499) rotate(143.984) scale(106.463 164.888)">
<stop stopColor="#91A8BA"/>
<stop offset="0.674805" stopColor="#414F5E"/>
<stop offset="1" stopColor="#2F3B4A"/>
</radialGradient>
<linearGradient id="paint13_linear_28_2138" x1="39.589" y1="-88.2703" x2="20.0428" y2="-12.1066" gradientUnits="userSpaceOnUse">
<stop stopColor="#FFAB20"/>
<stop offset="1" stopColor="#EAD3A6" stopOpacity="0"/>
</linearGradient>
<radialGradient id="paint14_radial_28_2138" cx="0" cy="0" r="1" gradientUnits="userSpaceOnUse" gradientTransform="translate(36.3279 5.61697) rotate(83.5479) scale(70.3763 39.8799)">
<stop offset="0.0792988"/>
<stop offset="0.771177" stopOpacity="0.915314"/>
<stop offset="0.89233" stopOpacity="0.21756"/>
<stop offset="1" stopOpacity="0"/>
</radialGradient>
<radialGradient id="paint15_radial_28_2138" cx="0" cy="0" r="1" gradientUnits="userSpaceOnUse" gradientTransform="translate(29.3848 -98.9208) rotate(106.092) scale(138.614 96.6045)">
<stop stopColor="white"/>
<stop offset="0.385317" stopColor="#ECCA97"/>
<stop offset="0.385417" stopColor="#DEA248"/>
<stop offset="0.713542" stopColor="#795826"/>
<stop offset="0.885417" stopColor="#3F2D12"/>
<stop offset="1" stopColor="#181005"/>
</radialGradient>
<linearGradient id="paint16_linear_28_2138" x1="39.6149" y1="-6.64566" x2="-20.222" y2="-8.85613" gradientUnits="userSpaceOnUse">
<stop offset="0.160241" stopColor="#9C5615" stopOpacity="0"/>
<stop offset="1" stopColor="#C75D0F"/>
</linearGradient>
<radialGradient id="paint17_radial_28_2138" cx="0" cy="0" r="1" gradientUnits="userSpaceOnUse" gradientTransform="translate(71.6371 -35.9964) rotate(143.984) scale(89.9024 139.239)">
<stop stopColor="#91A8BA"/>
<stop offset="0.674805" stopColor="#414F5E"/>
<stop offset="1" stopColor="#2F3B4A"/>
</radialGradient>
<linearGradient id="paint18_linear_28_2138" x1="62.736" y1="-81.9421" x2="42.4786" y2="-10.542" gradientUnits="userSpaceOnUse">
<stop stopColor="#FFAB20"/>
<stop offset="1" stopColor="#EAD3A6" stopOpacity="0"/>
</linearGradient>
<radialGradient id="paint19_radial_28_2138" cx="0" cy="0" r="1" gradientUnits="userSpaceOnUse" gradientTransform="translate(56.2305 4.42463) rotate(83.5479) scale(59.4291 33.6765)">
<stop offset="0.0792988"/>
<stop offset="0.771177" stopOpacity="0.915314"/>
<stop offset="0.89233" stopOpacity="0.21756"/>
<stop offset="1" stopOpacity="0"/>
</radialGradient>
<radialGradient id="paint20_radial_28_2138" cx="0" cy="0" r="1" gradientUnits="userSpaceOnUse" gradientTransform="translate(62.4174 -97.8218) rotate(109.388) scale(134.036 93.4143)">
<stop stopColor="white"/>
<stop offset="0.385317" stopColor="#ECCA97"/>
<stop offset="0.385417" stopColor="#DEA248"/>
<stop offset="1" stopColor="#181005"/>
</radialGradient>
<linearGradient id="paint21_linear_28_2138" x1="59.0061" y1="-5.93059" x2="8.47695" y2="-7.79721" gradientUnits="userSpaceOnUse">
<stop offset="0.160241" stopColor="#9C5615" stopOpacity="0"/>
<stop offset="1" stopColor="#C75D0F"/>
</linearGradient>
<radialGradient id="paint22_radial_28_2138" cx="0" cy="0" r="1" gradientUnits="userSpaceOnUse" gradientTransform="translate(84.9512 -28.5655) rotate(143.984) scale(69.4689 107.592)">
<stop stopColor="#91A8BA"/>
<stop offset="0.674805" stopColor="#414F5E"/>
<stop offset="1" stopColor="#2F3B4A"/>
</radialGradient>
<linearGradient id="paint23_linear_28_2138" x1="78.0733" y1="-64.0684" x2="62.4201" y2="-8.89656" gradientUnits="userSpaceOnUse">
<stop stopColor="#FFAB20"/>
<stop offset="1" stopColor="#EAD3A6" stopOpacity="0"/>
</linearGradient>
<radialGradient id="paint24_radial_28_2138" cx="0" cy="0" r="1" gradientUnits="userSpaceOnUse" gradientTransform="translate(73.0464 2.66839) rotate(83.5479) scale(45.9217 26.0223)">
<stop offset="0.0792988"/>
<stop offset="0.552348" stopOpacity="0.915314"/>
<stop offset="0.812141" stopOpacity="0.21756"/>
<stop offset="1" stopOpacity="0"/>
</radialGradient>
<radialGradient id="paint25_radial_28_2138" cx="0" cy="0" r="1" gradientUnits="userSpaceOnUse" gradientTransform="translate(77.633 -72.0422) rotate(110.104) scale(99.4615 69.3181)">
<stop stopColor="white"/>
<stop offset="0.385317" stopColor="#ECCA97"/>
<stop offset="0.385417" stopColor="#DEA248"/>
<stop offset="1" stopColor="#181005"/>
</radialGradient>
<linearGradient id="paint26_linear_28_2138" x1="75.1915" y1="-5.33348" x2="36.1469" y2="-6.77584" gradientUnits="userSpaceOnUse">
<stop offset="0.160241" stopColor="#9C5615" stopOpacity="0"/>
<stop offset="1" stopColor="#C75D0F"/>
</linearGradient>
<radialGradient id="paint27_radial_28_2138" cx="0" cy="0" r="1" gradientUnits="userSpaceOnUse" gradientTransform="translate(94.8974 -20.4265) rotate(143.984) scale(46.5842 72.1487)">
<stop stopColor="#91A8BA"/>
<stop offset="0.674805" stopColor="#414F5E"/>
<stop offset="1" stopColor="#2F3B4A"/>
</radialGradient>
<linearGradient id="paint28_linear_28_2138" x1="90.2852" y1="-44.234" x2="79.7885" y2="-7.23697" gradientUnits="userSpaceOnUse">
<stop stopColor="#FFAB20"/>
<stop offset="1" stopColor="#EAD3A6" stopOpacity="0"/>
</linearGradient>
<radialGradient id="paint29_radial_28_2138" cx="0" cy="0" r="1" gradientUnits="userSpaceOnUse" gradientTransform="translate(90.1075 -50.9972) rotate(109.787) scale(68.0681 47.439)">
<stop stopColor="white"/>
<stop offset="0.385317" stopColor="#ECCA97"/>
<stop offset="0.385417" stopColor="#DEA248"/>
<stop offset="1" stopColor="#181005"/>
</radialGradient>
<linearGradient id="paint30_linear_28_2138" x1="88.3526" y1="-4.84751" x2="62.1702" y2="-5.81473" gradientUnits="userSpaceOnUse">
<stop offset="0.160241" stopColor="#9C5615" stopOpacity="0"/>
<stop offset="1" stopColor="#C75D0F"/>
</linearGradient>
</defs>
</svg>
