<svg width="388" height="341" viewBox="0 0 388 341" fill="none" xmlns="http://www.w3.org/2000/svg">
<mask id="mask0_28_2707" style="mask-type:alpha" maskUnits="userSpaceOnUse" x="0" y="0" width="388" height="341">
<path fill-rule="evenodd" clip-rule="evenodd" d="M275 21C275 9.40202 265.598 0 254 0H21C9.40202 0 0 9.40202 0 21V115V287V320C0 331.598 9.40202 341 21 341H367C378.598 341 388 331.598 388 320V136C388 124.402 378.598 115 367 115H296C284.402 115 275 105.598 275 94V21Z" fill="#D9D9D9"/>
</mask>
<g mask="url(#mask0_28_2707)">
<rect x="401" y="354" width="423" height="360" transform="rotate(180 401 354)" fill="url(#paint0_linear_28_2707)"/>
<g style="mix-blend-mode:color">
<g filter="url(#filter0_f_28_2707)">
<g filter="url(#filter1_i_28_2707)">
<ellipse cx="314.315" cy="366.43" rx="19.1954" ry="33.8742" transform="rotate(-41.1907 314.315 366.43)" fill="#98B6D4"/>
<ellipse cx="314.315" cy="366.43" rx="19.1954" ry="33.8742" transform="rotate(-41.1907 314.315 366.43)" fill="url(#paint1_radial_28_2707)" style="mix-blend-mode:hard-light"/>
<ellipse cx="314.315" cy="366.43" rx="19.1954" ry="33.8742" transform="rotate(-41.1907 314.315 366.43)" fill="url(#paint2_linear_28_2707)"/>
</g>
<path d="M331.016 396.829L336.601 391.941C328.615 398.891 312.179 393.136 299.87 379.071C287.55 364.993 284.029 347.92 292.007 340.939L286.421 345.827C286.413 345.834 286.406 345.84 286.399 345.846C278.421 352.828 281.942 369.901 294.262 383.979C306.583 398.057 323.038 403.81 331.016 396.829Z" fill="url(#paint3_radial_28_2707)"/>
<path d="M331.016 396.829L336.601 391.941C328.615 398.891 312.179 393.136 299.87 379.071C287.55 364.993 284.029 347.92 292.007 340.939L286.421 345.827C286.413 345.834 286.406 345.84 286.399 345.846C278.421 352.828 281.942 369.901 294.262 383.979C306.583 398.057 323.038 403.81 331.016 396.829Z" fill="url(#paint4_linear_28_2707)" fill-opacity="0.5" style="mix-blend-mode:color"/>
</g>
<g filter="url(#filter2_f_28_2707)">
<g filter="url(#filter3_i_28_2707)">
<ellipse cx="314.315" cy="366.43" rx="19.1954" ry="33.8742" transform="rotate(-41.1907 314.315 366.43)" fill="#98B6D4"/>
<ellipse cx="314.315" cy="366.43" rx="19.1954" ry="33.8742" transform="rotate(-41.1907 314.315 366.43)" fill="url(#paint5_radial_28_2707)" style="mix-blend-mode:hard-light"/>
<ellipse cx="314.315" cy="366.43" rx="19.1954" ry="33.8742" transform="rotate(-41.1907 314.315 366.43)" fill="url(#paint6_linear_28_2707)"/>
</g>
<path d="M331.016 396.829L336.601 391.941C328.615 398.891 312.179 393.136 299.87 379.071C287.55 364.993 284.029 347.92 292.007 340.939L286.421 345.827C286.413 345.834 286.406 345.84 286.399 345.846C278.421 352.828 281.942 369.901 294.262 383.979C306.583 398.057 323.038 403.81 331.016 396.829Z" fill="url(#paint7_radial_28_2707)"/>
<path d="M331.016 396.829L336.601 391.941C328.615 398.891 312.179 393.136 299.87 379.071C287.55 364.993 284.029 347.92 292.007 340.939L286.421 345.827C286.413 345.834 286.406 345.84 286.399 345.846C278.421 352.828 281.942 369.901 294.262 383.979C306.583 398.057 323.038 403.81 331.016 396.829Z" fill="url(#paint8_linear_28_2707)" fill-opacity="0.5" style="mix-blend-mode:color"/>
</g>
<g filter="url(#filter4_f_28_2707)">
<g filter="url(#filter5_i_28_2707)">
<ellipse cx="326.745" cy="355.463" rx="28.6252" ry="50.515" transform="rotate(-41.1907 326.745 355.463)" fill="#98B6D4"/>
<ellipse cx="326.745" cy="355.463" rx="28.6252" ry="50.515" transform="rotate(-41.1907 326.745 355.463)" fill="url(#paint9_radial_28_2707)" style="mix-blend-mode:hard-light"/>
<ellipse cx="326.745" cy="355.463" rx="28.6252" ry="50.515" transform="rotate(-41.1907 326.745 355.463)" fill="url(#paint10_linear_28_2707)"/>
</g>
<path d="M351.65 400.795L359.978 393.506C348.069 403.871 323.56 395.288 305.204 374.314C286.831 353.32 281.581 327.86 293.478 317.449L285.147 324.739C285.136 324.748 285.125 324.758 285.114 324.767C273.218 335.179 278.468 360.638 296.841 381.633C315.214 402.627 339.753 411.206 351.65 400.795Z" fill="url(#paint11_radial_28_2707)"/>
<path d="M351.65 400.795L359.978 393.506C348.069 403.871 323.56 395.288 305.204 374.314C286.831 353.32 281.581 327.86 293.478 317.449L285.147 324.739C285.136 324.748 285.125 324.758 285.114 324.767C273.218 335.179 278.468 360.638 296.841 381.633C315.214 402.627 339.753 411.206 351.65 400.795Z" fill="url(#paint12_linear_28_2707)" fill-opacity="0.5" style="mix-blend-mode:color"/>
</g>
<g filter="url(#filter6_f_28_2707)">
<g filter="url(#filter7_i_28_2707)">
<ellipse cx="341.174" cy="342.834" rx="37.045" ry="65.3735" transform="rotate(-41.1907 341.174 342.834)" fill="#034C80"/>
<ellipse cx="341.174" cy="342.834" rx="37.045" ry="65.3735" transform="rotate(-41.1907 341.174 342.834)" fill="url(#paint13_radial_28_2707)" style="mix-blend-mode:hard-light"/>
<ellipse cx="341.174" cy="342.834" rx="37.045" ry="65.3735" transform="rotate(-41.1907 341.174 342.834)" fill="url(#paint14_linear_28_2707)" style="mix-blend-mode:color-dodge"/>
<ellipse cx="341.174" cy="342.834" rx="37.045" ry="65.3735" transform="rotate(-41.1907 341.174 342.834)" fill="url(#paint15_radial_28_2707)" style="mix-blend-mode:soft-light"/>
</g>
<path d="M373.404 401.501L384.183 392.068C368.77 405.482 337.051 394.375 313.297 367.231C289.519 340.061 282.725 307.113 298.121 293.639L287.34 303.074C287.326 303.086 287.312 303.098 287.298 303.111C271.902 316.585 278.696 349.533 302.474 376.702C326.251 403.872 358.008 414.975 373.404 401.501Z" fill="url(#paint16_radial_28_2707)"/>
<path d="M373.404 401.501L384.183 392.068C368.77 405.482 337.051 394.375 313.297 367.231C289.519 340.061 282.725 307.113 298.121 293.639L287.34 303.074C287.326 303.086 287.312 303.098 287.298 303.111C271.902 316.585 278.696 349.533 302.474 376.702C326.251 403.872 358.008 414.975 373.404 401.501Z" fill="url(#paint17_linear_28_2707)" fill-opacity="0.5" style="mix-blend-mode:color"/>
</g>
<g filter="url(#filter8_f_28_2707)">
<g filter="url(#filter9_i_28_2707)">
<ellipse cx="357.326" cy="328.697" rx="43.8689" ry="77.4157" transform="rotate(-41.1907 357.326 328.697)" fill="#034C80"/>
<ellipse cx="357.326" cy="328.697" rx="43.8689" ry="77.4157" transform="rotate(-41.1907 357.326 328.697)" fill="url(#paint18_radial_28_2707)" style="mix-blend-mode:hard-light"/>
<ellipse cx="357.326" cy="328.697" rx="43.8689" ry="77.4157" transform="rotate(-41.1907 357.326 328.697)" fill="url(#paint19_linear_28_2707)" style="mix-blend-mode:color-dodge"/>
<ellipse cx="357.326" cy="328.697" rx="43.8689" ry="77.4157" transform="rotate(-41.1907 357.326 328.697)" fill="url(#paint20_radial_28_2707)" style="mix-blend-mode:soft-light"/>
</g>
<path d="M395.492 398.17L408.256 387C390.005 402.885 352.443 389.732 324.313 357.588C296.156 325.413 288.11 286.396 306.342 270.44L293.575 281.613C293.559 281.627 293.542 281.642 293.525 281.656C275.293 297.612 283.339 336.63 311.496 368.804C339.654 400.978 377.26 414.126 395.492 398.17Z" fill="url(#paint21_radial_28_2707)"/>
<path d="M395.492 398.17L408.256 387C390.005 402.885 352.443 389.732 324.313 357.588C296.156 325.413 288.11 286.396 306.342 270.44L293.575 281.613C293.559 281.627 293.542 281.642 293.525 281.656C275.293 297.612 283.339 336.63 311.496 368.804C339.654 400.978 377.26 414.126 395.492 398.17Z" fill="url(#paint22_linear_28_2707)" fill-opacity="0.5" style="mix-blend-mode:color"/>
</g>
<g filter="url(#filter10_f_28_2707)">
<g filter="url(#filter11_i_28_2707)">
<ellipse cx="371.563" cy="316.236" rx="37.045" ry="65.3735" transform="rotate(-41.1907 371.563 316.236)" fill="#034C80"/>
<ellipse cx="371.563" cy="316.236" rx="37.045" ry="65.3735" transform="rotate(-41.1907 371.563 316.236)" fill="url(#paint23_radial_28_2707)" style="mix-blend-mode:hard-light"/>
<ellipse cx="371.563" cy="316.236" rx="37.045" ry="65.3735" transform="rotate(-41.1907 371.563 316.236)" fill="url(#paint24_linear_28_2707)" style="mix-blend-mode:color-dodge"/>
<ellipse cx="371.563" cy="316.236" rx="37.045" ry="65.3735" transform="rotate(-41.1907 371.563 316.236)" fill="url(#paint25_radial_28_2707)" style="mix-blend-mode:soft-light"/>
</g>
<path d="M403.793 374.902L414.572 365.47C399.159 378.884 367.441 367.776 343.686 340.633C319.908 313.463 313.114 280.515 328.51 267.041L317.73 276.476C317.715 276.488 317.701 276.5 317.687 276.513C302.291 289.986 309.085 322.934 332.863 350.104C356.64 377.274 388.397 388.376 403.793 374.902Z" fill="url(#paint26_radial_28_2707)"/>
<path d="M403.793 374.902L414.572 365.47C399.159 378.884 367.441 367.776 343.686 340.633C319.908 313.463 313.114 280.515 328.51 267.041L317.73 276.476C317.715 276.488 317.701 276.5 317.687 276.513C302.291 289.986 309.085 322.934 332.863 350.104C356.64 377.274 388.397 388.376 403.793 374.902Z" fill="url(#paint27_linear_28_2707)" fill-opacity="0.5" style="mix-blend-mode:color"/>
</g>
<g filter="url(#filter12_f_28_2707)">
<g filter="url(#filter13_i_28_2707)">
<ellipse cx="383.446" cy="305.835" rx="28.6252" ry="50.515" transform="rotate(-41.1907 383.446 305.835)" fill="#034C80"/>
<ellipse cx="383.446" cy="305.835" rx="28.6252" ry="50.515" transform="rotate(-41.1907 383.446 305.835)" fill="url(#paint28_radial_28_2707)" style="mix-blend-mode:hard-light"/>
<ellipse cx="383.446" cy="305.835" rx="28.6252" ry="50.515" transform="rotate(-41.1907 383.446 305.835)" fill="url(#paint29_linear_28_2707)" style="mix-blend-mode:color-dodge"/>
<ellipse cx="383.446" cy="305.835" rx="28.6252" ry="50.515" transform="rotate(-41.1907 383.446 305.835)" fill="url(#paint30_radial_28_2707)" style="mix-blend-mode:soft-light"/>
</g>
<path d="M408.35 351.168L416.679 343.879C404.77 354.244 380.26 345.661 361.905 324.687C343.532 303.692 338.281 278.233 350.178 267.822L341.848 275.112C341.837 275.121 341.826 275.131 341.815 275.14C329.918 285.552 335.168 311.011 353.542 332.006C371.915 353 396.453 361.579 408.35 351.168Z" fill="url(#paint31_radial_28_2707)"/>
<path d="M408.35 351.168L416.679 343.879C404.77 354.244 380.26 345.661 361.905 324.687C343.532 303.692 338.281 278.233 350.178 267.822L341.848 275.112C341.837 275.121 341.826 275.131 341.815 275.14C329.918 285.552 335.168 311.011 353.542 332.006C371.915 353 396.453 361.579 408.35 351.168Z" fill="url(#paint32_linear_28_2707)" fill-opacity="0.5" style="mix-blend-mode:color"/>
</g>
<g filter="url(#filter14_f_28_2707)">
<g filter="url(#filter15_i_28_2707)">
<ellipse cx="393.109" cy="297.378" rx="19.1954" ry="33.8742" transform="rotate(-41.1907 393.109 297.378)" fill="#034C80"/>
<ellipse cx="393.109" cy="297.378" rx="19.1954" ry="33.8742" transform="rotate(-41.1907 393.109 297.378)" fill="url(#paint33_radial_28_2707)" style="mix-blend-mode:hard-light"/>
<ellipse cx="393.109" cy="297.378" rx="19.1954" ry="33.8742" transform="rotate(-41.1907 393.109 297.378)" fill="url(#paint34_linear_28_2707)" style="mix-blend-mode:color-dodge"/>
</g>
<path d="M409.81 327.777L415.395 322.889C407.409 329.84 390.973 324.084 378.664 310.02C366.344 295.941 362.823 278.869 370.801 271.887L365.215 276.776C365.207 276.782 365.2 276.788 365.193 276.795C357.215 283.777 360.736 300.849 373.056 314.927C385.377 329.006 401.832 334.759 409.81 327.777Z" fill="url(#paint35_radial_28_2707)"/>
<path d="M409.81 327.777L415.395 322.889C407.409 329.84 390.973 324.084 378.664 310.02C366.344 295.941 362.823 278.869 370.801 271.887L365.215 276.776C365.207 276.782 365.2 276.788 365.193 276.795C357.215 283.777 360.736 300.849 373.056 314.927C385.377 329.006 401.832 334.759 409.81 327.777Z" fill="url(#paint36_linear_28_2707)" fill-opacity="0.5" style="mix-blend-mode:color"/>
</g>
</g>
</g>
<defs>
<filter id="filter0_f_28_2707" x="281.869" y="337.712" width="59.2839" height="62.3436" filterUnits="userSpaceOnUse" color-interpolation-filters="sRGB">
<feFlood flood-opacity="0" result="BackgroundImageFix"/>
<feBlend mode="normal" in="SourceGraphic" in2="BackgroundImageFix" result="shape"/>
<feGaussianBlur stdDeviation="0.129026" result="effect1_foregroundBlur_28_2707"/>
</filter>
<filter id="filter1_i_28_2707" x="287.736" y="337.841" width="53.4177" height="57.0487" filterUnits="userSpaceOnUse" color-interpolation-filters="sRGB">
<feFlood flood-opacity="0" result="BackgroundImageFix"/>
<feBlend mode="normal" in="SourceGraphic" in2="BackgroundImageFix" result="shape"/>
<feColorMatrix in="SourceAlpha" type="matrix" values="0 0 0 0 0 0 0 0 0 0 0 0 0 0 0 0 0 0 127 0" result="hardAlpha"/>
<feOffset dx="0.516104" dy="-0.129026"/>
<feGaussianBlur stdDeviation="0.129026"/>
<feComposite in2="hardAlpha" operator="arithmetic" k2="-1" k3="1"/>
<feColorMatrix type="matrix" values="0 0 0 0 0 0 0 0 0 0 0 0 0 0 0 0 0 0 0.2 0"/>
<feBlend mode="normal" in2="shape" result="effect1_innerShadow_28_2707"/>
</filter>
<filter id="filter2_f_28_2707" x="281.869" y="337.712" width="59.2839" height="62.3436" filterUnits="userSpaceOnUse" color-interpolation-filters="sRGB">
<feFlood flood-opacity="0" result="BackgroundImageFix"/>
<feBlend mode="normal" in="SourceGraphic" in2="BackgroundImageFix" result="shape"/>
<feGaussianBlur stdDeviation="0.129026" result="effect1_foregroundBlur_28_2707"/>
</filter>
<filter id="filter3_i_28_2707" x="287.736" y="337.841" width="53.4177" height="57.0487" filterUnits="userSpaceOnUse" color-interpolation-filters="sRGB">
<feFlood flood-opacity="0" result="BackgroundImageFix"/>
<feBlend mode="normal" in="SourceGraphic" in2="BackgroundImageFix" result="shape"/>
<feColorMatrix in="SourceAlpha" type="matrix" values="0 0 0 0 0 0 0 0 0 0 0 0 0 0 0 0 0 0 127 0" result="hardAlpha"/>
<feOffset dx="0.516104" dy="-0.129026"/>
<feGaussianBlur stdDeviation="0.129026"/>
<feComposite in2="hardAlpha" operator="arithmetic" k2="-1" k3="1"/>
<feColorMatrix type="matrix" values="0 0 0 0 0 0 0 0 0 0 0 0 0 0 0 0 0 0 0.2 0"/>
<feBlend mode="normal" in2="shape" result="effect1_innerShadow_28_2707"/>
</filter>
<filter id="filter4_f_28_2707" x="278.487" y="312.764" width="88.1543" height="92.7162" filterUnits="userSpaceOnUse" color-interpolation-filters="sRGB">
<feFlood flood-opacity="0" result="BackgroundImageFix"/>
<feBlend mode="normal" in="SourceGraphic" in2="BackgroundImageFix" result="shape"/>
<feGaussianBlur stdDeviation="0.129026" result="effect1_foregroundBlur_28_2707"/>
</filter>
<filter id="filter5_i_28_2707" x="287.108" y="312.893" width="79.533" height="85.0105" filterUnits="userSpaceOnUse" color-interpolation-filters="sRGB">
<feFlood flood-opacity="0" result="BackgroundImageFix"/>
<feBlend mode="normal" in="SourceGraphic" in2="BackgroundImageFix" result="shape"/>
<feColorMatrix in="SourceAlpha" type="matrix" values="0 0 0 0 0 0 0 0 0 0 0 0 0 0 0 0 0 0 127 0" result="hardAlpha"/>
<feOffset dx="0.516104" dy="-0.129026"/>
<feGaussianBlur stdDeviation="0.129026"/>
<feComposite in2="hardAlpha" operator="arithmetic" k2="-1" k3="1"/>
<feColorMatrix type="matrix" values="0 0 0 0 0 0 0 0 0 0 0 0 0 0 0 0 0 0 0.2 0"/>
<feBlend mode="normal" in2="shape" result="effect1_innerShadow_28_2707"/>
</filter>
<filter id="filter6_f_28_2707" x="278.797" y="287.652" width="113.932" height="119.836" filterUnits="userSpaceOnUse" color-interpolation-filters="sRGB">
<feFlood flood-opacity="0" result="BackgroundImageFix"/>
<feBlend mode="normal" in="SourceGraphic" in2="BackgroundImageFix" result="shape"/>
<feGaussianBlur stdDeviation="0.129026" result="effect1_foregroundBlur_28_2707"/>
</filter>
<filter id="filter7_i_28_2707" x="289.878" y="287.781" width="102.851" height="109.978" filterUnits="userSpaceOnUse" color-interpolation-filters="sRGB">
<feFlood flood-opacity="0" result="BackgroundImageFix"/>
<feBlend mode="normal" in="SourceGraphic" in2="BackgroundImageFix" result="shape"/>
<feColorMatrix in="SourceAlpha" type="matrix" values="0 0 0 0 0 0 0 0 0 0 0 0 0 0 0 0 0 0 127 0" result="hardAlpha"/>
<feOffset dx="0.516104" dy="-0.129026"/>
<feGaussianBlur stdDeviation="0.129026"/>
<feComposite in2="hardAlpha" operator="arithmetic" k2="-1" k3="1"/>
<feColorMatrix type="matrix" values="0 0 0 0 0 0 0 0 0 0 0 0 0 0 0 0 0 0 0.2 0"/>
<feBlend mode="normal" in2="shape" result="effect1_innerShadow_28_2707"/>
</filter>
<filter id="filter8_f_28_2707" x="283.505" y="263.397" width="134.823" height="141.816" filterUnits="userSpaceOnUse" color-interpolation-filters="sRGB">
<feFlood flood-opacity="0" result="BackgroundImageFix"/>
<feBlend mode="normal" in="SourceGraphic" in2="BackgroundImageFix" result="shape"/>
<feGaussianBlur stdDeviation="0.129026" result="effect1_foregroundBlur_28_2707"/>
</filter>
<filter id="filter9_i_28_2707" x="296.58" y="263.526" width="121.749" height="130.212" filterUnits="userSpaceOnUse" color-interpolation-filters="sRGB">
<feFlood flood-opacity="0" result="BackgroundImageFix"/>
<feBlend mode="normal" in="SourceGraphic" in2="BackgroundImageFix" result="shape"/>
<feColorMatrix in="SourceAlpha" type="matrix" values="0 0 0 0 0 0 0 0 0 0 0 0 0 0 0 0 0 0 127 0" result="hardAlpha"/>
<feOffset dx="0.516104" dy="-0.129026"/>
<feGaussianBlur stdDeviation="0.129026"/>
<feComposite in2="hardAlpha" operator="arithmetic" k2="-1" k3="1"/>
<feColorMatrix type="matrix" values="0 0 0 0 0 0 0 0 0 0 0 0 0 0 0 0 0 0 0.2 0"/>
<feBlend mode="normal" in2="shape" result="effect1_innerShadow_28_2707"/>
</filter>
<filter id="filter10_f_28_2707" x="309.186" y="261.054" width="113.932" height="119.836" filterUnits="userSpaceOnUse" color-interpolation-filters="sRGB">
<feFlood flood-opacity="0" result="BackgroundImageFix"/>
<feBlend mode="normal" in="SourceGraphic" in2="BackgroundImageFix" result="shape"/>
<feGaussianBlur stdDeviation="0.129026" result="effect1_foregroundBlur_28_2707"/>
</filter>
<filter id="filter11_i_28_2707" x="320.267" y="261.183" width="102.851" height="109.978" filterUnits="userSpaceOnUse" color-interpolation-filters="sRGB">
<feFlood flood-opacity="0" result="BackgroundImageFix"/>
<feBlend mode="normal" in="SourceGraphic" in2="BackgroundImageFix" result="shape"/>
<feColorMatrix in="SourceAlpha" type="matrix" values="0 0 0 0 0 0 0 0 0 0 0 0 0 0 0 0 0 0 127 0" result="hardAlpha"/>
<feOffset dx="0.516104" dy="-0.129026"/>
<feGaussianBlur stdDeviation="0.129026"/>
<feComposite in2="hardAlpha" operator="arithmetic" k2="-1" k3="1"/>
<feColorMatrix type="matrix" values="0 0 0 0 0 0 0 0 0 0 0 0 0 0 0 0 0 0 0.2 0"/>
<feBlend mode="normal" in2="shape" result="effect1_innerShadow_28_2707"/>
</filter>
<filter id="filter12_f_28_2707" x="335.187" y="263.137" width="88.1543" height="92.7162" filterUnits="userSpaceOnUse" color-interpolation-filters="sRGB">
<feFlood flood-opacity="0" result="BackgroundImageFix"/>
<feBlend mode="normal" in="SourceGraphic" in2="BackgroundImageFix" result="shape"/>
<feGaussianBlur stdDeviation="0.129026" result="effect1_foregroundBlur_28_2707"/>
</filter>
<filter id="filter13_i_28_2707" x="343.809" y="263.266" width="79.533" height="85.0105" filterUnits="userSpaceOnUse" color-interpolation-filters="sRGB">
<feFlood flood-opacity="0" result="BackgroundImageFix"/>
<feBlend mode="normal" in="SourceGraphic" in2="BackgroundImageFix" result="shape"/>
<feColorMatrix in="SourceAlpha" type="matrix" values="0 0 0 0 0 0 0 0 0 0 0 0 0 0 0 0 0 0 127 0" result="hardAlpha"/>
<feOffset dx="0.516104" dy="-0.129026"/>
<feGaussianBlur stdDeviation="0.129026"/>
<feComposite in2="hardAlpha" operator="arithmetic" k2="-1" k3="1"/>
<feColorMatrix type="matrix" values="0 0 0 0 0 0 0 0 0 0 0 0 0 0 0 0 0 0 0.2 0"/>
<feBlend mode="normal" in2="shape" result="effect1_innerShadow_28_2707"/>
</filter>
<filter id="filter14_f_28_2707" x="360.663" y="268.66" width="59.2839" height="62.3436" filterUnits="userSpaceOnUse" color-interpolation-filters="sRGB">
<feFlood flood-opacity="0" result="BackgroundImageFix"/>
<feBlend mode="normal" in="SourceGraphic" in2="BackgroundImageFix" result="shape"/>
<feGaussianBlur stdDeviation="0.129026" result="effect1_foregroundBlur_28_2707"/>
</filter>
<filter id="filter15_i_28_2707" x="366.53" y="268.789" width="53.4177" height="57.0487" filterUnits="userSpaceOnUse" color-interpolation-filters="sRGB">
<feFlood flood-opacity="0" result="BackgroundImageFix"/>
<feBlend mode="normal" in="SourceGraphic" in2="BackgroundImageFix" result="shape"/>
<feColorMatrix in="SourceAlpha" type="matrix" values="0 0 0 0 0 0 0 0 0 0 0 0 0 0 0 0 0 0 127 0" result="hardAlpha"/>
<feOffset dx="0.516104" dy="-0.129026"/>
<feGaussianBlur stdDeviation="0.129026"/>
<feComposite in2="hardAlpha" operator="arithmetic" k2="-1" k3="1"/>
<feColorMatrix type="matrix" values="0 0 0 0 0 0 0 0 0 0 0 0 0 0 0 0 0 0 0.2 0"/>
<feBlend mode="normal" in2="shape" result="effect1_innerShadow_28_2707"/>
</filter>
<linearGradient id="paint0_linear_28_2707" x1="376" y1="327" x2="784" y2="706" gradientUnits="userSpaceOnUse">
<stop stop-color="#FFF27D"/>
<stop offset="1" stop-color="#BEFFE4"/>
</linearGradient>
<radialGradient id="paint1_radial_28_2707" cx="0" cy="0" r="1" gradientUnits="userSpaceOnUse" gradientTransform="translate(320.697 351.239) rotate(156.344) scale(48.9398 75.7969)">
<stop stop-color="#91A8BA"/>
<stop offset="0.674805" stop-color="#414F5E"/>
<stop offset="1" stop-color="#2F3B4A"/>
</radialGradient>
<linearGradient id="paint2_linear_28_2707" x1="314.315" y1="332.555" x2="315.323" y2="349.931" gradientUnits="userSpaceOnUse">
<stop stop-color="#C1C8CE"/>
<stop offset="1" stop-color="#C1C8CE" />
</linearGradient>
<radialGradient id="paint3_radial_28_2707" cx="0" cy="0" r="1" gradientUnits="userSpaceOnUse" gradientTransform="translate(284.136 340.775) rotate(62.7859) scale(59.1395 41.2163)">
<stop stop-color="white"/>
<stop offset="0.479167" stop-color="#DEA248"/>
<stop offset="1" stop-color="#181005"/>
</radialGradient>
<linearGradient id="paint4_linear_28_2707" x1="314.315" y1="366.43" x2="295.091" y2="383.254" gradientUnits="userSpaceOnUse">
<stop offset="0.160241" stop-color="#9C5615" />
<stop offset="1" stop-color="#C75D0F"/>
</linearGradient>
<radialGradient id="paint5_radial_28_2707" cx="0" cy="0" r="1" gradientUnits="userSpaceOnUse" gradientTransform="translate(320.697 351.239) rotate(156.344) scale(48.9398 75.7969)">
<stop stop-color="#91A8BA"/>
<stop offset="0.674805" stop-color="#414F5E"/>
<stop offset="1" stop-color="#2F3B4A"/>
</radialGradient>
<linearGradient id="paint6_linear_28_2707" x1="314.315" y1="332.555" x2="315.323" y2="349.931" gradientUnits="userSpaceOnUse">
<stop stop-color="#C1C8CE"/>
<stop offset="1" stop-color="#C1C8CE" />
</linearGradient>
<radialGradient id="paint7_radial_28_2707" cx="0" cy="0" r="1" gradientUnits="userSpaceOnUse" gradientTransform="translate(284.136 340.775) rotate(62.7859) scale(59.1395 41.2163)">
<stop stop-color="white"/>
<stop offset="0.385317" stop-color="#ECCA97"/>
<stop offset="0.385417" stop-color="#DEA248"/>
<stop offset="1" stop-color="#181005"/>
</radialGradient>
<linearGradient id="paint8_linear_28_2707" x1="314.315" y1="366.43" x2="295.091" y2="383.254" gradientUnits="userSpaceOnUse">
<stop offset="0.160241" stop-color="#9C5615" />
<stop offset="1" stop-color="#C75D0F"/>
</linearGradient>
<radialGradient id="paint9_radial_28_2707" cx="0" cy="0" r="1" gradientUnits="userSpaceOnUse" gradientTransform="translate(336.262 332.81) rotate(156.344) scale(72.9816 113.032)">
<stop stop-color="#91A8BA"/>
<stop offset="0.674805" stop-color="#414F5E"/>
<stop offset="1" stop-color="#2F3B4A"/>
</radialGradient>
<linearGradient id="paint10_linear_28_2707" x1="326.745" y1="304.948" x2="328.249" y2="330.859" gradientUnits="userSpaceOnUse">
<stop stop-color="#C1C8CE"/>
<stop offset="1" stop-color="#C1C8CE" />
</linearGradient>
<radialGradient id="paint11_radial_28_2707" cx="0" cy="0" r="1" gradientUnits="userSpaceOnUse" gradientTransform="translate(281.74 317.204) rotate(62.7858) scale(88.1919 61.4639)">
<stop stop-color="white"/>
<stop offset="0.385317" stop-color="#ECCA97"/>
<stop offset="0.385417" stop-color="#DEA248"/>
<stop offset="1" stop-color="#181005"/>
</radialGradient>
<linearGradient id="paint12_linear_28_2707" x1="326.745" y1="355.462" x2="298.076" y2="380.552" gradientUnits="userSpaceOnUse">
<stop offset="0.160241" stop-color="#9C5615" />
<stop offset="1" stop-color="#C75D0F"/>
</linearGradient>
<radialGradient id="paint13_radial_28_2707" cx="0" cy="0" r="1" gradientUnits="userSpaceOnUse" gradientTransform="translate(353.49 313.518) rotate(143.984) scale(87.6602 135.766)">
<stop stop-color="#91A8BA"/>
<stop offset="0.674805" stop-color="#414F5E"/>
<stop offset="1" stop-color="#2F3B4A"/>
</radialGradient>
<linearGradient id="paint14_linear_28_2707" x1="341.153" y1="275.626" x2="325.059" y2="338.338" gradientUnits="userSpaceOnUse">
<stop stop-color="#FFAB20"/>
<stop offset="1" stop-color="#EAD3A6" />
</linearGradient>
<radialGradient id="paint15_radial_28_2707" cx="0" cy="0" r="1" gradientUnits="userSpaceOnUse" gradientTransform="translate(338.467 352.931) rotate(83.096) scale(70.0469 39.6933)">
<stop offset="0.0792988"/>
<stop offset="0.771177" stopOpacity="0.915314"/>
<stop offset="0.89233" stopOpacity="0.21756"/>
<stop offset="1" />
</radialGradient>
<radialGradient id="paint16_radial_28_2707" cx="0" cy="0" r="1" gradientUnits="userSpaceOnUse" gradientTransform="translate(282.931 293.323) rotate(62.7859) scale(114.133 79.5429)">
<stop stop-color="white"/>
<stop offset="0.385317" stop-color="#ECCA97"/>
<stop offset="0.385417" stop-color="#DEA248"/>
<stop offset="1" stop-color="#181005"/>
</radialGradient>
<linearGradient id="paint17_linear_28_2707" x1="341.174" y1="342.834" x2="304.073" y2="375.303" gradientUnits="userSpaceOnUse">
<stop offset="0.160241" stop-color="#9C5615" />
<stop offset="1" stop-color="#C75D0F"/>
</linearGradient>
<radialGradient id="paint18_radial_28_2707" cx="0" cy="0" r="1" gradientUnits="userSpaceOnUse" gradientTransform="translate(371.91 293.981) rotate(143.984) scale(103.808 160.775)">
<stop stop-color="#91A8BA"/>
<stop offset="0.674805" stop-color="#414F5E"/>
<stop offset="1" stop-color="#2F3B4A"/>
</radialGradient>
<linearGradient id="paint19_linear_28_2707" x1="357.3" y1="249.108" x2="338.242" y2="323.372" gradientUnits="userSpaceOnUse">
<stop stop-color="#FFAB20"/>
<stop offset="1" stop-color="#EAD3A6" />
</linearGradient>
<radialGradient id="paint20_radial_28_2707" cx="0" cy="0" r="1" gradientUnits="userSpaceOnUse" gradientTransform="translate(354.121 340.654) rotate(83.5479) scale(68.6211 38.8853)">
<stop offset="0.0792988"/>
<stop offset="0.771177" stopOpacity="0.915314"/>
<stop offset="0.89233" stopOpacity="0.21756"/>
<stop offset="1" />
</radialGradient>
<radialGradient id="paint21_radial_28_2707" cx="0" cy="0" r="1" gradientUnits="userSpaceOnUse" gradientTransform="translate(288.354 270.065) rotate(62.7858) scale(135.156 94.1951)">
<stop stop-color="white"/>
<stop offset="0.385317" stop-color="#ECCA97"/>
<stop offset="0.385417" stop-color="#DEA248"/>
<stop offset="0.713542" stop-color="#795826"/>
<stop offset="0.885417" stop-color="#3F2D12"/>
<stop offset="1" stop-color="#181005"/>
</radialGradient>
<linearGradient id="paint22_linear_28_2707" x1="357.325" y1="328.697" x2="313.39" y2="367.147" gradientUnits="userSpaceOnUse">
<stop offset="0.160241" stop-color="#9C5615" />
<stop offset="1" stop-color="#C75D0F"/>
</linearGradient>
<radialGradient id="paint23_radial_28_2707" cx="0" cy="0" r="1" gradientUnits="userSpaceOnUse" gradientTransform="translate(383.879 286.92) rotate(143.984) scale(87.6602 135.766)">
<stop stop-color="#91A8BA"/>
<stop offset="0.674805" stop-color="#414F5E"/>
<stop offset="1" stop-color="#2F3B4A"/>
</radialGradient>
<linearGradient id="paint24_linear_28_2707" x1="375.2" y1="242.12" x2="355.448" y2="311.74" gradientUnits="userSpaceOnUse">
<stop stop-color="#FFAB20"/>
<stop offset="1" stop-color="#EAD3A6" />
</linearGradient>
<radialGradient id="paint25_radial_28_2707" cx="0" cy="0" r="1" gradientUnits="userSpaceOnUse" gradientTransform="translate(368.857 326.333) rotate(83.5479) scale(57.9469 32.8366)">
<stop offset="0.0792988"/>
<stop offset="0.771177" stopOpacity="0.915314"/>
<stop offset="0.89233" stopOpacity="0.21756"/>
<stop offset="1" />
</radialGradient>
<radialGradient id="paint26_radial_28_2707" cx="0" cy="0" r="1" gradientUnits="userSpaceOnUse" gradientTransform="translate(312.527 248.753) rotate(66.0816) scale(130.693 91.0844)">
<stop stop-color="white"/>
<stop offset="0.385317" stop-color="#ECCA97"/>
<stop offset="0.385417" stop-color="#DEA248"/>
<stop offset="1" stop-color="#181005"/>
</radialGradient>
<linearGradient id="paint27_linear_28_2707" x1="371.563" y1="316.236" x2="334.462" y2="348.705" gradientUnits="userSpaceOnUse">
<stop offset="0.160241" stop-color="#9C5615" />
<stop offset="1" stop-color="#C75D0F"/>
</linearGradient>
<radialGradient id="paint28_radial_28_2707" cx="0" cy="0" r="1" gradientUnits="userSpaceOnUse" gradientTransform="translate(392.963 283.183) rotate(143.984) scale(67.7363 104.908)">
<stop stop-color="#91A8BA"/>
<stop offset="0.674805" stop-color="#414F5E"/>
<stop offset="1" stop-color="#2F3B4A"/>
</radialGradient>
<linearGradient id="paint29_linear_28_2707" x1="386.256" y1="248.565" x2="370.993" y2="302.361" gradientUnits="userSpaceOnUse">
<stop stop-color="#FFAB20"/>
<stop offset="1" stop-color="#EAD3A6" />
</linearGradient>
<radialGradient id="paint30_radial_28_2707" cx="0" cy="0" r="1" gradientUnits="userSpaceOnUse" gradientTransform="translate(381.355 313.637) rotate(83.5479) scale(44.7764 25.3733)">
<stop offset="0.0792988"/>
<stop offset="0.552348" stopOpacity="0.915314"/>
<stop offset="0.812141" stopOpacity="0.21756"/>
<stop offset="1" />
</radialGradient>
<radialGradient id="paint31_radial_28_2707" cx="0" cy="0" r="1" gradientUnits="userSpaceOnUse" gradientTransform="translate(340.564 256.869) rotate(66.7976) scale(96.9809 67.5893)">
<stop stop-color="white"/>
<stop offset="0.385317" stop-color="#ECCA97"/>
<stop offset="0.385417" stop-color="#DEA248"/>
<stop offset="1" stop-color="#181005"/>
</radialGradient>
<linearGradient id="paint32_linear_28_2707" x1="383.446" y1="305.835" x2="354.777" y2="330.924" gradientUnits="userSpaceOnUse">
<stop offset="0.160241" stop-color="#9C5615" />
<stop offset="1" stop-color="#C75D0F"/>
</linearGradient>
<radialGradient id="paint33_radial_28_2707" cx="0" cy="0" r="1" gradientUnits="userSpaceOnUse" gradientTransform="translate(399.491 282.188) rotate(143.984) scale(45.4224 70.3492)">
<stop stop-color="#91A8BA"/>
<stop offset="0.674805" stop-color="#414F5E"/>
<stop offset="1" stop-color="#2F3B4A"/>
</radialGradient>
<linearGradient id="paint34_linear_28_2707" x1="394.994" y1="258.974" x2="384.759" y2="295.048" gradientUnits="userSpaceOnUse">
<stop stop-color="#FFAB20"/>
<stop offset="1" stop-color="#EAD3A6" />
</linearGradient>
<radialGradient id="paint35_radial_28_2707" cx="0" cy="0" r="1" gradientUnits="userSpaceOnUse" gradientTransform="translate(363.49 263.459) rotate(66.481) scale(66.3704 46.2558)">
<stop stop-color="white"/>
<stop offset="0.385317" stop-color="#ECCA97"/>
<stop offset="0.385417" stop-color="#DEA248"/>
<stop offset="1" stop-color="#181005"/>
</radialGradient>
<linearGradient id="paint36_linear_28_2707" x1="393.109" y1="297.378" x2="373.885" y2="314.202" gradientUnits="userSpaceOnUse">
<stop offset="0.160241" stop-color="#9C5615" />
<stop offset="1" stop-color="#C75D0F"/>
</linearGradient>
</defs>
</svg>
